# Created by Open3D 
# object name: 17507563e90313433f19716eab42752
# number of vertices: 57
# number of triangles: 62
v 0.027199 0.352146 0.220494
vn 0.564696 -0.116707 0.817005
v -0.0556016 0.477749 0.108733
vn -0.456957 0.889486 -0.00227259
v 0.0427095 0.586443 0.0572544
vn 0.187051 -0.914803 0.357976
v -0.064185 0.441918 0.124824
vn 0.57111 -0.569926 0.590778
v -0.0230836 0.367556 0.212529
vn -0.865577 -0.0708158 0.495744
v 0.00876789 0.628827 0.0795476
vn -0.382079 -0.152478 0.911464
v 0.00876789 0.613462 0.0402821
vn -0.529516 -0.428043 -0.732387
v 0.456972 -0.233608 0.118562
vn -0.505774 0.722936 -0.470698
v 0.452246 -0.26643 0.144398
vn -0.541619 -0.666682 0.512039
v 0.489456 -0.241752 0.142318
vn 0.672288 0.395693 0.625664
v 0.486749 -0.26643 0.107324
vn 0.363728 -0.607931 -0.705778
v 0.186721 0.261508 0.0973779
vn 0.029673 0.982085 0.186087
v -0.0508196 0.44866 0.0760477
vn 0.832311 -0.380438 -0.403144
v -0.0849173 0.431184 0.0921512
vn -0.961629 0.119438 -0.24699
v 0.042304 0.626686 0.0565524
vn 0.827719 0.522559 -0.204485
v -0.171364 0.421776 -0.00153399
vn 0.588606 0.804689 0.0775773
v -0.162505 0.386126 0.0187173
vn 0.387295 -0.343367 0.855629
v -0.111192 0.382642 -0.174655
vn -0.572032 -0.780043 0.2536
v -0.105123 0.426851 -0.157094
vn -0.384961 0.893419 -0.231531
v 0.391131 -0.23946 0.219223
vn 0.751201 -0.46701 -0.466474
v 0.372935 -0.191653 0.232076
vn 0.398786 0.915177 0.0584812
v -0.0751382 0.394347 -0.189434
vn 0.51948 0.252908 -0.816197
v 0.182616 0.229958 0.0622691
vn 0.30389 -0.190792 -0.933407
v -0.183588 0.417834 -0.0446784
vn 0.511796 0.473352 -0.71694
v 0.00876789 0.381003 0.192435
vn 0.324717 0.793766 -0.51429
v 0.0500028 0.419921 0.152356
vn 0.778829 0.449236 0.437737
v 0.00876789 0.404645 0.152888
vn -0.646568 -0.511962 0.565548
v -0.00488022 0.658751 0.0494014
vn -0.187051 0.914803 -0.357976
v -0.2047 0.378749 -0.00371148
vn -0.973323 -0.228165 0.0241374
v 0.360461 -0.227956 0.248333
vn -0.29533 -0.351273 0.888475
v 0.205322 0.219859 0.111947
vn 0.869449 -0.413676 0.270059
v 0.0434467 -0.228971 -0.403944
vn -0.447744 0.572566 -0.6868
v 0.00876789 -0.194835 -0.407774
vn 0.607833 -0.518664 -0.601271
v 0.00876789 -0.230604 -0.437593
vn 0.466119 0.551176 0.692054
v 0.343765 -0.218348 0.211826
vn -0.701333 -0.0763887 -0.708729
v -0.111689 0.370584 -0.126474
vn -0.737821 0.482542 -0.471989
v -0.342823 -0.0592936 0.171854
vn -0.516427 0.74655 -0.419483
v 0.168068 0.223421 0.0990901
vn -0.89415 -0.276008 0.352585
v 0.26201 -0.20356 0.289109
vn 0.351761 -0.86072 0.368001
v 0.0447691 -0.195312 -0.431642
vn -0.581697 -0.520854 0.624772
v -0.145016 0.427254 -0.0427404
vn 0.895544 0.341769 -0.284948
v -0.308874 -0.0332638 0.132881
vn -0.719569 0.331695 -0.61008
v -0.325834 -0.0233865 0.17134
vn -0.911413 -0.329056 -0.247079
v 0.00876789 0.337478 0.186217
vn -0.116921 -0.729732 -0.673662
v 0.275651 -0.149544 0.289695
vn 0.511869 0.601477 0.613364
v -0.092725 0.339365 -0.101549
vn -0.328852 -0.657603 0.677801
v -0.162546 0.382051 -0.0214672
vn 0.856873 -0.194449 -0.47745
v -0.34832 -0.0313749 0.126293
vn -0.919005 -0.0622598 -0.389298
v -0.318343 0.0125038 0.147915
vn 0.0823059 0.973425 -0.213706
v 0.034618 0.397374 0.114357
vn 0.248295 -0.693785 -0.676026
v 0.269334 -0.169337 0.249438
vn 0.335532 -0.074546 -0.939075
v -0.0693685 0.374469 -0.102172
vn 0.644494 0.676296 0.356724
v -0.294714 -0.0531489 0.167066
vn -0.808336 0.375963 -0.45304
v 0.00876789 0.436486 0.12021
vn -0.325428 0.865156 -0.381579
v 0.237025 -0.170518 0.277559
vn -0.969148 0.244403 0.0319177
v -0.07031 0.337495 -0.138501
vn 0.491446 -0.341193 -0.801292
v -0.0724639 0.407732 -0.142232
vn 0.453992 -0.382073 0.804929
f 8//8 9//9 10//10
f 11//11 9//9 8//8
f 8//8 10//10 11//11
f 11//11 10//10 9//9
f 14//14 13//13 4//4
f 2//2 13//13 14//14
f 14//14 4//4 2//2
f 2//2 4//4 13//13
f 3//3 7//7 15//15
f 15//15 6//6 3//3
f 3//3 6//6 7//7
f 28//28 15//15 7//7
f 6//6 15//15 28//28
f 28//28 7//7 6//6
f 35//35 21//21 20//20
f 35//35 30//30 21//21
f 20//20 30//30 35//35
f 20//20 21//21 30//30
f 23//23 31//31 38//38
f 38//38 31//31 12//12
f 12//12 23//23 38//38
f 31//31 23//23 12//12
f 32//32 33//33 40//40
f 40//40 34//34 32//32
f 33//33 34//34 40//40
f 34//34 33//33 32//32
f 5//5 25//25 44//44
f 44//44 25//25 1//1
f 1//1 5//5 44//44
f 25//25 5//5 1//1
f 24//24 41//41 47//47
f 47//47 41//41 16//16
f 47//47 24//24 16//16
f 41//41 24//24 16//16
f 47//47 29//29 16//16
f 17//17 29//29 47//47
f 16//16 17//17 47//47
f 29//29 17//17 16//16
f 49//49 48//48 43//43
f 42//42 48//48 49//49
f 49//49 43//43 42//42
f 42//42 43//43 48//48
f 53//53 43//43 42//42
f 37//37 43//43 53//53
f 53//53 42//42 37//37
f 43//43 42//42 37//37
f 54//54 50//50 27//27
f 26//26 50//50 54//54
f 54//54 27//27 26//26
f 26//26 27//27 50//50
f 45//45 51//51 55//55
f 55//55 51//51 39//39
f 39//39 45//45 55//55
f 51//51 45//45 39//39
f 56//56 52//52 46//46
f 36//36 52//52 56//56
f 56//56 46//46 36//36
f 36//36 46//46 52//52
f 57//57 22//22 19//19
f 18//18 22//22 57//57
f 57//57 19//19 18//18
f 18//18 19//19 22//22
