# Created by Open3D 
# object name: 591262ba071ebd196c8bf2a864894125
# number of vertices: 92
# number of triangles: 100
v -0.43868 -0.0274694 -0.372778
vn 0.836859 0.512245 0.193061
v -0.220532 -0.0274694 -0.786603
vn 0.0566415 0.998128 0.023083
v -0.234239 -0.0642662 -0.806253
vn -0.810601 -0.483529 -0.330342
v -0.186436 -0.0274694 -0.752188
vn -0.432857 0.378657 -0.818079
v 0.215685 -0.0668309 -0.683818
vn -0.385314 -0.346842 0.855122
v -0.594525 -0.0274694 -0.257331
vn 0 1 0
v -0.121523 -0.0668309 0.844634
vn 0.566292 -0.323783 0.757943
v 0.104653 -0.0274694 -0.787669
vn 0.772228 -0.632984 0.0547365
v -0.191141 -0.0668309 -0.80111
vn 0.871849 -0.0655743 -0.485364
v 0.0732488 -0.0107297 -0.814395
vn -0.162717 0.121643 -0.979146
v 0.0872566 0.00931587 -0.780208
vn 0.076905 0.883134 0.462775
v -0.594232 -0.0668309 -0.236709
vn 0.191402 -0.364066 0.911494
v 0.0199378 -0.0274694 0.67018
vn -0.966983 0.253545 0.0256451
v -0.284048 -0.0668309 0.421452
vn -0.200706 -0.46142 -0.864181
v -0.27065 -0.0668309 0.461556
vn -0.258576 -0.297711 0.91897
v -0.17136 -0.0668309 -0.732185
vn 0 -1 0
v 0.246172 -0.0274694 -0.683563
vn 0.680617 0.44654 0.580829
v 0.210994 -0.0274694 -0.699415
vn -0.311042 0.246865 -0.917775
v 0.252984 -0.0668309 -0.696459
vn 0.909215 -0.350918 -0.224019
v 0.272534 -0.00424113 -0.751686
vn -0.745139 0.515299 -0.42336
v 0.249862 -0.0274694 -0.732051
vn 0.852344 0.290071 -0.435165
v 0.49299 -0.0668309 0.176999
vn 0 -1 0
v -0.101039 -0.0841475 0.410535
vn -0.852735 0.376261 -0.362312
v -0.0858131 -0.115454 0.444329
vn -0.276101 -0.647887 0.709937
v 0.0573688 -0.0274694 0.680177
vn 0.550261 0.501621 0.667525
v -0.470718 -0.02507 0.458449
vn -0.740997 -0.544895 0.392445
v -0.303893 -0.0274694 0.431741
vn -0.908744 0.286369 0.303607
v -0.265655 -0.0274694 0.439379
vn 0.517027 0.838359 -0.172736
v 0.500254 -0.0274694 0.188751
vn 0.611251 0.531037 0.586832
v -0.116936 -0.0274694 0.803802
vn 0.799308 0.360208 -0.480996
v -0.149287 -0.0274694 0.827973
vn -0.723407 0.53589 0.435322
v -0.238149 -0.0668309 0.437489
vn 0.908744 -0.286369 -0.303607
v -0.208227 -0.0668309 -0.759183
vn -0.132175 -0.428167 0.893981
v 0.313274 -0.0108501 -0.744941
vn 0.67442 -0.287277 -0.680168
v -0.140532 -0.0274694 -0.730278
vn 0.945327 0.26665 -0.187765
v -0.0643099 -0.0953566 0.41459
vn 0.678744 -0.360518 -0.639791
v -0.144031 -0.0668309 0.807231
vn -0.476235 -0.605733 -0.637408
v 0.0563085 -0.0274694 0.640198
vn 0.258034 -0.0016837 -0.966134
v -0.450211 0.00463067 0.441073
vn 0.0449467 0.998706 -0.0238045
v 0.455385 -0.0274694 0.199444
vn -0.686146 -0.0889484 0.722005
v 0.511875 -0.0274694 0.140603
vn 0.686146 0.0889484 -0.722005
v -0.575566 -0.0668309 -0.277034
vn 0.714846 -0.320331 -0.621597
v 0.285951 -0.0274694 -0.717079
vn -0.11061 -0.791415 0.601188
v -0.283484 -0.115454 -0.602928
vn 0.085659 -0.335323 -0.938201
v 0.0570727 -0.0274694 -0.779762
vn -0.705991 -0.445543 0.550516
v 0.1975 -0.0668309 0.485116
vn 0.893323 -0.206898 -0.398958
v -0.0630004 -0.0668309 0.441132
vn 0.162123 0.759231 0.630305
v -0.621 -0.0668309 -0.267493
vn -0.885013 -0.221213 -0.409655
v -0.420147 -0.0274694 0.45327
vn 0.822717 -0.277932 0.495873
v 0.389764 -0.0274694 0.398797
vn 0.758998 0.547825 -0.351867
v 0.161075 -0.0274694 0.479929
vn 0 1 0
v 0.472675 -0.0274694 0.162541
vn -0.682998 0.3218 -0.655712
v 0.263282 -0.0480432 0.771506
vn 0.827886 0.381092 -0.41155
v -0.309517 -0.0831713 -0.545749
vn -0.085659 0.335323 0.938201
v -0.260725 -0.0913486 -0.571808
vn 0.901982 -0.0348677 0.430363
v -0.303208 -0.115454 -0.567071
vn -0.626244 -0.765618 0.147129
v 0.116438 -0.0668309 0.620538
vn 0.927745 -0.363907 -0.0828312
v 0.167344 -0.0668309 0.514381
vn -0.215695 -0.0712555 0.973857
v 0.281661 -0.0505296 0.334411
vn -0.883053 -0.326037 -0.337518
v 0.393016 -0.0668309 0.404035
vn -0.378781 -0.471644 0.796289
v -0.442719 -0.0274694 0.41065
vn -0.112127 -0.442988 -0.889488
v 0.354372 -0.0274694 0.381962
vn -0.907085 -0.0189669 0.420519
v 0.0591664 -0.0668309 0.488658
vn -0.0786545 0.0237496 0.996619
v 0.221503 -0.0668309 0.767674
vn -0.798611 -2.12838e-07 -0.601848
v -0.478489 -0.0274694 -0.391247
vn -0.617746 0.429124 -0.658971
v -0.178132 -0.0274694 -0.710383
vn -0.413306 0.281738 0.865911
v -0.255655 -0.0668309 -0.612031
vn 0.886643 -0.458918 -0.0570845
v -0.293461 -0.0668309 -0.58356
vn -0.776847 0.616972 -0.125913
v 0.319333 -0.0274694 -0.695472
vn 0.745139 -0.515299 0.42336
v 0.309829 0.0126046 -0.710329
vn -0.0901388 0.891726 0.443509
v 0.314402 -0.0274694 0.337442
vn 0.376247 0.700534 -0.606375
v 0.376954 -0.0668309 0.36939
vn 0.428027 -0.0843914 -0.899817
v 0.14953 -0.0668309 0.474492
vn -0.560068 -0.59435 -0.577124
v 0.0597711 -0.0274694 0.478934
vn 0.277999 -0.0368026 -0.959876
v 0.300831 -0.0274694 0.372947
vn -0.161603 0.100374 0.981738
v 0.23623 -0.0559207 0.807402
vn -0.305721 0.516727 0.799705
v 0.246418 -0.0926525 0.793883
vn 0.400223 -0.910752 0.101749
v -0.29667 -0.0668309 -0.633409
vn -0.57788 -0.277942 -0.767335
v -0.274905 -0.0274694 -0.611791
vn 0 1 0
v 0.326627 -0.0668309 0.343479
vn 0.549886 -0.808364 0.210176
v 0.0172413 -0.0668309 0.476516
vn 0.0763726 -0.240235 -0.967706
v 0.0199521 -0.0274694 0.475792
vn -0.27041 0.234808 0.933672
v -0.474001 -0.048965 -0.353665
vn -0.409215 -0.233521 0.882049
v 0.0951408 -0.0274694 0.609772
vn 0 1 0
v 0.0785501 -0.0668309 0.596878
vn -0.49687 -0.468619 -0.730422
v 0.0827109 -0.0668309 0.643481
vn -0.528895 -0.0545137 0.846935
v 0.0751124 -0.0668309 0.550076
vn 0 -1 0
v -0.4511 -0.0725085 -0.390464
vn 0.233648 -0.83173 -0.50362
v 0.113207 -0.0274694 0.551241
vn 0.98957 0.0837409 0.117212
v 0.0740836 -0.0274694 0.53064
vn -0.426676 0.436399 -0.792151
v 0.0469763 -0.0668309 0.67747
vn 0 -1 0
v 0.068811 -0.0274694 0.575154
vn -0.428847 0.390936 0.814407
f 19//19 17//17 5//5
f 19//19 18//18 17//17
f 5//5 18//18 19//19
f 5//5 17//17 18//18
f 14//14 27//27 28//28
f 28//28 27//27 15//15
f 14//14 15//15 27//27
f 14//14 28//28 32//32
f 32//32 28//28 15//15
f 32//32 15//15 14//14
f 3//3 9//9 33//33
f 33//33 9//9 2//2
f 2//2 3//3 33//33
f 9//9 3//3 2//2
f 37//37 31//31 30//30
f 7//7 31//31 37//37
f 37//37 30//30 7//7
f 7//7 30//30 31//31
f 19//19 21//21 43//43
f 43//43 21//21 17//17
f 17//17 19//19 43//43
f 17//17 19//19 21//21
f 45//45 11//11 10//10
f 8//8 11//11 45//45
f 45//45 10//10 8//8
f 8//8 10//10 11//11
f 47//47 36//36 23//23
f 24//24 36//36 47//47
f 23//23 24//24 47//47
f 36//36 24//24 23//23
f 6//6 42//42 48//48
f 48//48 42//42 12//12
f 48//48 12//12 6//6
f 6//6 12//12 42//42
f 52//52 40//40 29//29
f 22//22 40//40 52//52
f 22//22 29//29 40//40
f 29//29 41//41 52//52
f 52//52 41//41 22//22
f 41//41 29//29 22//22
f 61//61 49//49 26//26
f 39//39 49//49 61//61
f 26//26 39//39 61//61
f 49//49 39//39 26//26
f 16//16 35//35 66//66
f 66//66 35//35 4//4
f 4//4 16//16 66//66
f 35//35 16//16 4//4
f 44//44 56//56 68//68
f 68//68 55//55 44//44
f 44//44 55//55 56//56
f 68//68 56//56 54//54
f 54//54 55//55 68//68
f 56//56 55//55 54//54
f 43//43 69//69 70//70
f 70//70 69//69 34//34
f 69//69 43//43 34//34
f 20//20 43//43 70//70
f 70//70 34//34 20//20
f 20//20 34//34 43//43
f 60//60 62//62 72//72
f 72//72 62//62 50//50
f 50//50 60//60 72//72
f 62//62 60//60 50//50
f 73//73 58//58 51//51
f 46//46 58//58 73//73
f 73//73 51//51 46//46
f 46//46 51//51 58//58
f 77//77 76//76 64//64
f 53//53 76//76 77//77
f 77//77 64//64 53//53
f 53//53 64//64 76//76
f 79//79 78//78 68//68
f 67//67 78//78 79//79
f 79//79 68//68 67//67
f 67//67 68//68 78//78
f 71//71 75//75 80//80
f 80//80 75//75 59//59
f 59//59 71//71 80//80
f 75//75 71//71 59//59
f 74//74 81//81 82//82
f 82//82 81//81 63//63
f 63//63 74//74 82//82
f 81//81 74//74 63//63
f 84//84 85//85 86//86
f 86//86 85//85 57//57
f 57//57 84//84 86//86
f 85//85 84//84 57//57
f 88//88 83//83 65//65
f 1//1 83//83 88//88
f 88//88 65//65 1//1
f 1//1 65//65 83//83
f 13//13 38//38 91//91
f 91//91 38//38 25//25
f 91//91 25//25 13//13
f 13//13 25//25 38//38
f 89//89 90//90 92//92
f 92//92 90//90 87//87
f 87//87 89//89 92//92
f 90//90 89//89 87//87
