# Created by Open3D 
# object name: b9c7e3530d7128abf0d11ae402ef940e
# number of vertices: 34
# number of triangles: 36
v -0.867273 0.140586 -0.114289
vn -0.340971 0.542506 -0.767741
v -0.866749 0.134347 -0.0674006
vn -0.602262 -0.0045014 0.798286
v 0.112227 0.140586 0.833301
vn -0.462265 0.604219 0.649022
v -0.797085 0.140586 -0.287901
vn 0.201685 0.512461 0.83469
v -0.800985 0.0946078 -0.273497
vn -0.779822 -0.406074 0.476426
v -0.808805 0.12133 -0.323498
vn -0.775082 0.159536 -0.611389
v 0.858403 0.140586 0.100368
vn 0.909893 0.275702 0.309973
v 0.829959 0.138117 -0.309346
vn 0.836138 0.50156 0.222059
v 0.729837 0.140586 -0.47657
vn -0.350135 0.303838 -0.886052
v 0.769247 0.139494 -0.447432
vn 0.996232 0.0856658 0.0135324
v -0.842642 0.10919 -0.095884
vn 0.0998274 -0.986167 -0.132319
v 0.732964 0.0995223 -0.446802
vn -0.0274175 -0.999624 -0.000372426
v 0.862171 0.140586 0.0150668
vn 0.78514 0.0856166 0.613372
v 0.729222 0.140586 -0.431242
vn -0.513737 0.47757 0.712742
v 0.100629 0.10381 0.801448
vn -0.763603 -0.641047 -0.0772618
v 0.117685 0.140586 0.77936
vn -0.133126 0.672536 -0.727992
v 0.347692 0.134664 -0.848037
vn -0.00110173 0.617016 -0.78695
v 0.323213 0.102454 -0.82719
vn -0.696133 -0.684003 -0.218032
v 0.80165 0.112374 -0.328817
vn -0.0607005 -0.339104 -0.938788
v 0.829707 0.103807 0.086496
vn 0 -1 0
v -0.82428 0.140586 -0.0818537
vn 0.762015 0.642962 0.0770214
v 0.132544 0.119212 0.809841
vn 0.923448 -0.372175 0.093435
v -0.761783 0.140586 -0.311198
vn 0.779822 0.406074 -0.476426
v 0.362834 0.110593 -0.820864
vn 0.835542 -0.375263 0.401307
v 0.80022 0.0990372 -0.293307
vn 0.00798642 -0.608803 0.793281
v 0.778917 0.140586 -0.306937
vn -0.733457 0.64553 0.212913
v 0.822397 0.140586 0.0114982
vn -0.471575 0.616092 0.630911
v 0.325982 0.140586 -0.797296
vn -0.248325 0.652251 0.716173
v 0.849974 0.140586 -0.023802
vn 0.557976 0.362481 -0.746505
v 0.81793 0.140586 0.0883521
vn -0.773235 0.426232 0.469504
v -0.787645 0.0942211 -0.311967
vn 0.787348 -0.612292 0.0719864
v 0.829854 0.140586 0.0533501
vn 0.281871 0.13817 -0.949451
v 0.834188 0.102344 0.00174259
vn 0 -1 0
v 0.807793 0.140586 -0.0255778
vn -0.78514 -0.0856166 -0.613372
f 14//14 10//10 9//9
f 9//9 12//12 14//14
f 14//14 12//12 10//10
f 9//9 10//10 12//12
f 21//21 11//11 1//1
f 2//2 11//11 21//21
f 1//1 2//2 21//21
f 11//11 2//2 1//1
f 15//15 16//16 22//22
f 22//22 16//16 3//3
f 3//3 15//15 22//22
f 16//16 15//15 3//3
f 19//19 25//25 26//26
f 26//26 25//25 8//8
f 25//25 19//19 8//8
f 8//8 19//19 26//26
f 28//28 24//24 17//17
f 18//18 24//24 28//28
f 17//17 18//18 28//28
f 24//24 18//18 17//17
f 5//5 6//6 31//31
f 4//4 5//5 31//31
f 6//6 5//5 4//4
f 6//6 23//23 31//31
f 31//31 23//23 4//4
f 23//23 6//6 4//4
f 20//20 30//30 32//32
f 32//32 30//30 7//7
f 7//7 20//20 32//32
f 30//30 20//20 7//7
f 33//33 29//29 13//13
f 13//13 27//27 33//33
f 29//29 27//27 13//13
f 29//29 33//33 34//34
f 34//34 33//33 27//27
f 27//27 29//29 34//34
