# Created by Open3D 
# object name: 3569709b421075c730bbd4cddd04c77b
# number of vertices: 27
# number of triangles: 30
v 0.0873334 -0.0228808 -0.524985
vn -0.18734 -0.535471 0.823513
v 0.298183 -0.0492588 0.349384
vn 0.101448 -0.184479 0.977587
v 0.0964429 0.0246984 -0.535501
vn 0.281266 0.87676 0.390105
v 0.308136 -0.0655777 0.30686
vn 0.683496 -0.498747 -0.532995
v 0.258523 -0.0639878 0.312309
vn -0.802067 -0.59583 0.0409182
v 0.284037 -0.0325368 0.315596
vn -0.00966875 0.932811 -0.360236
v -0.138021 -0.146992 -0.606809
vn 0.278104 -0.701641 0.656017
v 0.426785 0.181615 -0.164541
vn 0.439726 0.897918 0.0196238
v -0.300017 -0.0520532 -0.409284
vn 0.380192 -0.166277 0.909838
v -0.344156 -0.0298392 -0.45431
vn 0.0348854 -0.387091 -0.921381
v -0.313021 -0.00342167 -0.419939
vn 0.787451 0.428666 0.442907
v -0.345065 -0.0276446 -0.410975
vn -0.522427 -0.300434 0.798003
v -0.310434 -0.0269578 -0.375367
vn 0.0918077 0.236479 0.967289
v -0.34889 0.0179712 -0.430284
vn -0.602438 0.603784 -0.522028
v -0.088878 -0.0576846 -0.604942
vn 0.428469 0.890586 -0.152549
v 0.0714997 -0.00267761 -0.558976
vn -0.715513 -0.0173595 -0.698383
v 0.119713 -0.018459 -0.558269
vn 0.800603 -0.271355 -0.53423
v -0.159282 -0.140248 -0.647136
vn 0.104844 -0.264516 -0.958665
v -0.188606 -0.125009 -0.618407
vn -0.882421 -0.17818 0.435413
v 0.392587 0.158577 -0.162309
vn -1 0 0
v -0.34889 0.0210334 -0.390006
vn -0.0348854 0.387091 0.921381
v -0.128909 -0.0809223 -0.634999
vn -0.576003 0.320026 -0.7522
v 0.426785 0.141456 -0.145246
vn 0.437798 -0.583607 0.683912
v -0.0923888 -0.0956503 -0.618407
vn 0.500869 -0.865521 0.00207995
v 0.426785 0.142605 -0.197829
vn 0.226847 -0.421789 -0.877858
v -0.151178 -0.110175 -0.618407
vn 0.410065 0.909805 -0.0640386
v -0.121422 -0.0764767 -0.588017
vn -0.482851 -0.252698 0.83845
f 6//6 5//5 2//2
f 5//5 4//4 2//2
f 4//4 5//5 6//6
f 2//2 4//4 6//6
f 11//11 12//12 13//13
f 9//9 11//11 13//13
f 13//13 12//12 9//9
f 9//9 11//11 12//12
f 14//14 11//11 10//10
f 10//10 12//12 14//14
f 10//10 11//11 12//12
f 17//17 16//16 3//3
f 1//1 16//16 17//17
f 17//17 3//3 1//1
f 1//1 3//3 16//16
f 11//11 14//14 21//21
f 21//21 14//14 12//12
f 21//21 12//12 11//11
f 25//25 23//23 20//20
f 8//8 23//23 25//25
f 25//25 20//20 8//8
f 8//8 20//20 23//23
f 26//26 19//19 7//7
f 7//7 18//18 26//26
f 18//18 19//19 26//26
f 19//19 18//18 7//7
f 22//22 24//24 27//27
f 27//27 24//24 15//15
f 15//15 22//22 27//27
f 24//24 22//22 15//15
