# Created by Open3D 
# object name: 4f58ebeb561bb94bb9e8bdc9c4a49aa2
# number of vertices: 124
# number of triangles: 132
v 0.617455 0.225213 0.616885
vn 0.811074 0.450785 -0.372762
v 0.58642 0.188485 0.603006
vn 0 -1 0
v 0.584272 0.225213 0.642748
vn -0.203183 -0.191183 0.960295
v -0.0142012 0.218445 -0.478668
vn 0.343965 0.546113 -0.763839
v 0.642918 0.221353 0.0940429
vn 0.436187 0.502558 0.746443
v -0.401415 -0.13265 0.650287
vn -0.863887 0.267697 0.426658
v 0.620208 0.225213 0.0550434
vn -0.49099 0.644219 -0.586439
v 0.642918 0.193319 0.0632464
vn 0.67289 -0.587177 -0.449937
v -0.357653 -0.137969 0.651279
vn 0.450681 0.456652 0.767043
v -0.374169 -0.171655 0.638973
vn -0.17915 -0.961999 -0.206066
v 0.609052 0.188485 0.0862899
vn -0.788427 -0.454882 0.414083
v -0.0123814 -0.0810324 0.42747
vn 0.00064537 0.921503 -0.38837
v -0.523399 0.188485 0.604801
vn -0.35276 -0.326587 0.87687
v -0.492326 0.188485 0.580692
vn 0.851252 -0.355082 -0.386378
v -0.543727 0.188485 0.560014
vn -0.580211 -0.322708 -0.747807
v -0.357578 0.225213 -0.455203
vn -0.875112 0.47698 -0.0816692
v -0.188805 -0.0832767 0.42186
vn -0.828606 0.381678 -0.409553
v -0.599957 0.225213 -0.264613
vn -0.651257 0.466816 -0.598287
v -0.576582 0.188485 -0.257888
vn 0 -1 0
v -0.553747 0.225213 -0.254089
vn 0.840919 0.495246 -0.218143
v -0.0406495 -0.106567 0.461425
vn -0.963114 -0.163052 0.214069
v -0.00634118 -0.122882 0.422769
vn 0.0796652 -0.827417 -0.555909
v -0.440175 -0.474431 -0.328116
vn -0.874754 -0.0677626 0.479806
v -0.403448 -0.491866 -0.342247
vn 0.508332 -0.725445 -0.464035
v -0.403448 -0.469876 -0.305789
vn 0.330677 -0.0664275 0.941403
v -0.405026 -0.443309 -0.338266
vn 0.422407 0.906182 -0.0201709
v 0.440847 -0.151231 0.595665
vn -0.330119 0.875339 0.353275
v 0.440847 -0.11304 0.580904
vn -0.419541 -0.841042 -0.341517
v 0.403996 -0.140449 0.614381
vn 0.329553 -0.340376 -0.880647
v 0.567531 0.225213 0.606322
vn -0.475935 0.632923 -0.610651
v -0.547896 0.225213 0.359019
vn 0.940012 0.153365 0.304724
v -0.591587 0.225213 0.355513
vn -0.752482 0.390767 0.530162
v -0.334612 -0.137272 0.613789
vn 0.863887 -0.267697 -0.426658
v -0.529053 0.225213 -0.12143
vn -0.491627 0.656765 -0.571806
v -0.50774 0.188485 -0.126845
vn 0.482122 -0.532568 -0.695651
v 0.000435002 0.188485 -0.455978
vn 0.185908 -0.891627 -0.412843
v 0.404119 -0.517947 -0.396537
vn -0.312703 -0.818115 -0.482602
v 0.440847 -0.500278 -0.373249
vn 1 0 0
v -0.332261 0.188883 -0.478668
vn 0.0357034 -0.566541 -0.82326
v -0.0269547 0.225213 -0.442053
vn -0.982328 0.163625 0.0908731
v -0.537842 0.090421 0.495753
vn 0.0659282 -0.070325 0.995343
v 0.440847 -0.483372 -0.22132
vn 0.44987 0.708995 -0.543086
v -0.403448 -0.391735 0.00411003
vn 0.787182 0.528516 -0.317829
v -0.440175 -0.402801 0.017117
vn -0.719801 0.452853 0.526128
v -0.440175 -0.277486 -0.156986
vn -0.714722 0.541326 0.442875
v -0.440175 -0.424091 -0.0182869
vn -0.209467 -0.369086 -0.905483
v 0.0913111 -0.120839 0.427779
vn -0.0348697 -0.810303 -0.584973
v -0.403448 -0.456134 -0.193918
vn 0.945191 0.133616 -0.297927
v 0.440847 -0.498763 -0.183221
vn 0.230691 -0.425694 0.874967
v 0.404119 -0.122879 0.570963
vn 0.501216 0.311962 0.807132
v -0.517389 0.225213 0.584288
vn 0 1 0
v -0.165221 -0.123426 0.421223
vn 0.270944 -0.790176 -0.549737
v -0.578598 0.225213 0.315443
vn 0.0729342 0.410636 -0.908878
v -0.377168 -0.311689 -0.135908
vn -0.684127 0.117899 -0.719771
v -0.350233 -0.346981 -0.110346
vn 0 -1 0
v -0.373615 -0.126537 0.611787
vn -0.394873 0.479805 -0.783494
v -0.538846 0.188485 -0.1001
vn -0.519113 -0.411682 0.749026
v -0.33711 0.188485 -0.429041
vn -0.0359044 -0.559731 0.827896
v 0.404119 -0.501441 -0.34748
vn -0.472646 -0.159799 0.866643
v -0.314823 0.225213 -0.453349
vn 0.842728 0.53133 0.0865913
v -0.526359 0.12425 0.459025
vn 0.460021 0.882758 -0.0954947
v 0.552247 -0.0551196 0.491243
vn -0.560589 0.73488 -0.381695
v 0.544058 -0.00218263 0.495753
vn -0.452048 -0.661826 -0.598029
v -0.440175 -0.366989 -0.115581
vn -0.277722 -0.951301 -0.133779
v -0.587653 0.225213 -0.217181
vn -0.221922 0.037173 0.974355
v 0.440426 -0.530708 -0.21026
vn 0.494084 -0.806124 -0.325647
v 0.0872971 -0.078627 0.433348
vn 0.000653704 0.921515 -0.388341
v -0.440175 -0.493705 -0.185188
vn -0.131832 -0.964497 -0.228836
v -0.440175 -0.455893 -0.21503
vn -0.558604 -0.123229 -0.820229
v -0.150581 -0.0783469 0.433614
vn 0.861675 0.505437 0.045278
v -0.323843 -0.311689 -0.129648
vn 0.84873 0.385817 -0.361666
v -0.419812 -0.311689 -0.155961
vn 0.389157 -0.804402 0.44888
v -0.407383 -0.274929 -0.180834
vn 0.830558 0.486334 -0.271389
v 3.80217e-05 -0.105074 0.465034
vn 0.754806 0.0353672 0.654994
v -0.0131626 0.188485 -0.413494
vn -0.343965 -0.546113 0.763839
v 0.404119 -0.476961 -0.388979
vn -0.245949 0.918674 -0.309107
v 0.152295 -0.157541 -0.232087
vn -0.259651 -0.650913 0.713368
v -0.493573 0.225213 -0.096841
vn 0.629953 0.257533 0.732691
v -0.513629 0.0733498 0.454586
vn 0.621787 -0.663254 -0.416503
v 0.54197 0.161307 0.495753
vn -0.906431 0.0956669 0.411378
v 0.584503 0.163213 0.495753
vn 0.748423 0.662671 0.0270066
v -0.440175 -0.327529 -0.119677
vn -0.0913289 0.793936 -0.601103
v -0.437719 -0.455246 -0.366204
vn -0.330677 0.0664275 -0.941403
v 0.0527175 -0.111748 0.449294
vn -0.993473 -0.0843382 -0.0768056
v 0.129777 -0.113005 0.446442
vn 0.993473 0.0843382 0.0768056
v -0.440175 -0.457082 -0.168763
vn -0.589378 0.373211 0.716483
v -0.440175 -0.417665 -0.196612
vn -0.00821383 0.999636 0.0256886
v 0.404119 -0.505455 -0.22238
vn -0.844686 -0.496296 -0.200487
v 0.236404 -0.197041 0.606986
vn 0.338832 -0.787332 -0.515073
v -0.403448 -0.474933 -0.155942
vn 0.53636 -0.345372 0.770088
v 0.00935331 0.225213 -0.425703
vn 0.819958 0.524948 0.228251
v 0.211434 -0.276936 -0.199644
vn 0.609778 0.668551 0.425688
v 0.170717 -0.122209 -0.241687
vn 0.865504 0.490693 0.100614
v -0.556378 0.0961074 0.459025
vn -0.878689 -0.181235 -0.441656
v 0.514302 -0.0468773 0.453404
vn 0.452048 0.661826 0.598029
v -0.440175 -0.334196 -0.0722675
vn -0.620254 0.0809973 0.780208
v -0.403448 -0.342577 -0.0889171
vn 1 0 0
v 0.0211537 -0.310972 -0.0208732
vn 0.683781 -0.717198 -0.134426
v 0.00890425 -0.272899 -0.0145088
vn 0.0351558 0.689796 0.72315
v -0.415665 -0.434859 0.0245142
vn 0.403295 -0.784195 0.471584
v 0.249428 -0.151072 0.616361
vn 0.618171 0.687039 -0.381893
v -0.177186 -0.1066 0.461111
vn -0.269005 -0.173066 0.947462
v 0.212542 -0.315857 -0.205541
vn 0.104349 -0.722442 -0.683512
v 0.126026 -0.108473 -0.24542
vn -0.845067 0.495324 0.201285
v -0.103547 0.313451 -0.360067
vn 1 0 0
v -0.0271895 -0.305598 -0.0236491
vn -0.910273 -0.333807 0.2449
v -0.580504 0.188485 0.339808
vn 0 -1 0
v 0.551514 -0.0255072 0.459025
vn -0.237015 -0.580398 0.779078
v 0.086736 -0.103787 0.468233
vn 0.0346138 -0.127495 0.991235
v 0.181412 -0.311689 -0.167496
vn 0.0806751 -0.147064 0.985832
v 0.579793 0.118589 0.495753
vn 0.0367467 -0.819889 0.571342
v -0.359898 -0.311689 -0.0953788
vn -0.0986362 0.533262 0.84018
v 0.404119 -0.482296 -0.177133
vn -0.494084 0.806124 0.325647
v -0.00102321 -0.274929 -0.0541754
vn 0.0771706 0.18849 -0.979038
v 0.240561 -0.176883 0.649982
vn 0.0246495 -0.206472 0.978142
v 0.515367 -0.034005 0.495753
vn 0.900338 -0.310008 -0.305427
v 0.207791 -0.16742 0.61396
vn -0.95934 0.279635 -0.038343
v 0.150058 -0.145692 -0.270633
vn 1.12374e-05 -0.262219 -0.965008
v 0.565041 0.136747 0.459025
vn 0 0 -1
v -0.440175 -0.301917 -0.200767
vn -0.535155 -0.341776 -0.772528
v -0.143257 0.343765 -0.374871
vn -0.357382 0.908028 0.218549
v 0.172599 -0.284487 -0.197592
vn -0.767767 0.0745691 -0.636375
v -0.143257 0.297609 -0.359182
vn -0.589416 -0.441828 0.676297
v -0.143257 0.307144 -0.398796
vn 0.106689 -0.319985 -0.941396
f 7//7 8//8 11//11
f 11//11 8//8 5//5
f 5//5 7//7 11//11
f 8//8 7//7 5//5
f 26//26 25//25 24//24
f 23//23 24//24 25//25
f 23//23 25//25 26//26
f 2//2 3//3 30//30
f 30//30 3//3 1//1
f 1//1 2//2 30//30
f 3//3 2//2 1//1
f 27//27 28//28 50//50
f 50//50 29//29 27//27
f 28//28 29//29 50//50
f 29//29 28//28 27//27
f 51//51 15//15 13//13
f 13//13 14//14 51//51
f 14//14 15//15 51//51
f 15//15 14//14 13//13
f 6//6 9//9 56//56
f 56//56 10//10 6//6
f 10//10 9//9 6//6
f 9//9 33//33 56//56
f 56//56 33//33 10//10
f 9//9 10//10 33//33
f 60//60 58//58 39//39
f 16//16 58//58 60//60
f 60//60 39//39 16//16
f 16//16 39//39 58//58
f 18//18 19//19 65//65
f 65//65 20//20 18//18
f 19//19 20//20 65//65
f 20//20 19//19 18//18
f 12//12 21//21 74//74
f 74//74 22//22 12//12
f 21//21 22//22 74//74
f 22//22 21//21 12//12
f 37//37 59//59 76//76
f 76//76 59//59 38//38
f 76//76 38//38 37//37
f 37//37 38//38 59//59
f 34//34 57//57 78//78
f 78//78 57//57 35//35
f 78//78 35//35 34//34
f 34//34 35//35 57//57
f 83//83 26//26 24//24
f 83//83 24//24 23//23
f 23//23 26//26 83//83
f 86//86 69//69 68//68
f 48//48 68//68 69//69
f 69//69 86//86 87//87
f 87//87 86//86 48//48
f 48//48 69//69 87//87
f 88//88 66//66 49//49
f 42//42 66//66 88//88
f 42//42 49//49 66//66
f 48//48 86//86 90//90
f 90//90 86//86 68//68
f 90//90 68//68 48//48
f 40//40 75//75 91//91
f 91//91 75//75 36//36
f 75//75 40//40 36//36
f 4//4 40//40 91//91
f 91//91 36//36 4//4
f 4//4 36//36 40//40
f 61//61 79//79 94//94
f 94//94 79//79 41//41
f 41//41 61//61 94//94
f 79//79 61//61 41//41
f 82//82 96//96 97//97
f 97//97 96//96 64//64
f 64//64 82//82 97//97
f 96//96 82//82 64//64
f 43//43 44//44 100//100
f 100//100 46//46 43//43
f 44//44 46//46 100//100
f 46//46 44//44 43//43
f 52//52 70//70 102//102
f 102//102 70//70 17//17
f 17//17 52//52 102//102
f 70//70 52//52 17//17
f 32//32 53//53 107//107
f 107//107 53//53 31//31
f 31//31 32//32 107//107
f 53//53 32//32 31//31
f 109//109 85//85 67//67
f 47//47 85//85 109//109
f 47//47 67//67 85//85
f 67//67 84//84 109//109
f 109//109 84//84 47//47
f 84//84 67//67 47//47
f 112//112 71//71 54//54
f 55//55 71//71 112//112
f 54//54 55//55 112//112
f 71//71 55//55 54//54
f 113//113 88//88 49//49
f 42//42 88//88 113//113
f 113//113 49//49 42//42
f 98//98 106//106 114//114
f 114//114 106//106 99//99
f 114//114 99//99 98//98
f 98//98 99//99 106//106
f 116//116 108//108 63//63
f 116//116 63//63 62//62
f 62//62 63//63 108//108
f 95//95 108//108 116//116
f 62//62 95//95 116//116
f 108//108 95//95 62//62
f 117//117 115//115 101//101
f 89//89 115//115 117//117
f 117//117 101//101 89//89
f 89//89 101//101 115//115
f 118//118 104//104 93//93
f 77//77 104//104 118//118
f 118//118 93//93 77//77
f 77//77 93//93 104//104
f 81//81 111//111 119//119
f 119//119 111//111 80//80
f 80//80 81//81 119//119
f 111//111 81//81 80//80
f 120//120 72//72 45//45
f 120//120 73//73 72//72
f 45//45 73//73 120//120
f 45//45 72//72 73//73
f 122//122 110//110 92//92
f 103//103 110//110 122//122
f 92//92 103//103 122//122
f 110//110 103//103 92//92
f 124//124 123//123 121//121
f 105//105 123//123 124//124
f 124//124 121//121 105//105
f 105//105 121//121 123//123
