# Created by Open3D 
# object name: 76389d102e3fb729f51f77a6d7299806
# number of vertices: 8
# number of triangles: 8
v 0.348498 -0.781657 0.0392759
vn -0.224445 0.678012 -0.699946
v -0.287275 -0.773426 0.0377635
vn 0.785078 0.579255 -0.219356
v -0.334289 -0.781019 0.0100905
vn -0.498359 0.425856 -0.755172
v 0.377075 -0.812527 0.0534016
vn 0.689558 -0.603394 -0.400531
v 0.33713 -0.812527 0.0662104
vn -0.755401 -0.51237 0.408469
v 0.373161 -0.782798 0.0834545
vn 0.247989 0.58344 0.773369
v -0.322895 -0.778073 0.0586493
vn -0.510843 0.0320879 0.859075
v -0.306015 -0.812527 0.0280805
vn 0.144383 -0.989177 0.0261287
f 6//6 5//5 4//4
f 1//1 5//5 6//6
f 6//6 4//4 1//1
f 1//1 4//4 5//5
f 8//8 7//7 3//3
f 2//2 7//7 8//8
f 8//8 3//3 2//2
f 2//2 3//3 7//7
