# Created by Open3D 
# object name: 97d75ad96c2c08268cbb8bac2032149c
# number of vertices: 5
# number of triangles: 6
v 0.346082 0.303197 0.339773
vn -0.740635 0.487344 -0.462554
v 0.349057 0.296845 0.394509
vn -0.694672 0.395963 0.600536
v 0.379482 0.270827 0.399752
vn 0.740635 -0.487344 0.462554
v 0.373225 0.30604 0.365498
vn 0.896768 0.254262 -0.362157
v 0.346082 0.262338 0.362915
vn -0.144569 -0.902188 -0.406396
f 1//1 4//4 5//5
f 5//5 2//2 1//1
f 1//1 2//2 4//4
f 5//5 4//4 3//3
f 5//5 3//3 2//2
f 2//2 3//3 4//4
