# Created by Open3D 
# object name: bbab666132885a14ea96899baeb81e22
# number of vertices: 117
# number of triangles: 126
v 0.506939 -0.606226 0.562467
vn 0.281742 -0.174927 -0.94341
v 0.48791 -0.620361 0.597989
vn 0.0424511 -0.738312 0.673123
v 0.507129 -0.612767 -0.0246968
vn 0.923311 0.265739 -0.277272
v 0.49348 -0.579932 0.592157
vn 0.416573 0.745767 0.519902
v -0.231018 -0.331917 0.231468
vn 0.392808 -0.505646 -0.76813
v -0.454126 -0.611989 0.270261
vn 0.731895 0.541115 0.414155
v -0.0513124 -0.237906 0.63661
vn 0.790446 0.606426 0.0862658
v 0.270299 -0.277415 0.307164
vn -0.453811 0.255602 -0.853653
v 0.25333 -0.324169 0.258421
vn -0.237908 -0.464098 0.853236
v 0.280202 -0.268904 0.346424
vn -0.17713 0.905396 0.385854
v -0.0287677 -0.317608 0.212457
vn 0.0199368 0.983859 -0.17783
v -0.0363118 -0.331175 0.318818
vn -0.05733 -0.987543 0.146536
v -0.0490515 -0.347568 0.226696
vn -0.820381 -0.473269 0.320921
v -0.0188255 -0.299737 0.298182
vn -0.0215506 0.454713 -0.890377
v 0.0337351 -0.340549 0.26749
vn 0.650071 -0.0233594 0.759514
v -0.47446 -0.644163 0.259573
vn 0.162919 -0.969889 -0.181034
v 0.45449 -0.590931 0.582552
vn -0.889326 0.0570767 -0.453699
v 0.000579435 -0.344849 0.247307
vn -0.117256 -0.983642 0.136744
v -0.0361905 -0.328758 0.152005
vn 0.50326 0.412912 0.7591
v -0.487367 -0.611989 0.240346
vn -0.365277 0.493135 -0.78955
v -0.0883171 -0.241974 0.622521
vn -0.88408 0.367039 -0.289285
v 0.185277 -0.284071 0.331258
vn 0.369806 0.741945 -0.55925
v 0.158247 -0.289927 0.362534
vn -0.734255 0.245613 0.632885
v 0.171204 -0.321359 0.329403
vn -0.370015 -0.801449 -0.46986
v 0.283067 -0.327217 0.217987
vn 0.394517 -0.658387 -0.641001
v 0.371789 -0.288419 0.141029
vn 0.273998 0.172844 0.946071
v 0.359731 -0.331958 0.111795
vn 0.200583 -0.964281 0.173001
v 0.316383 -0.288555 0.321305
vn 0.831145 -0.234414 -0.50423
v 0.476236 -0.644163 -0.0300541
vn -0.0201884 -0.999778 0.00606261
v 0.374702 -0.295046 0.100715
vn 0.462097 0.402597 -0.790178
v -0.0633488 -0.249093 0.583922
vn 0.894872 -0.239215 -0.376804
v 0.0679936 -0.275783 0.425437
vn 0.0246932 0.748786 0.662352
v 0.0605027 -0.286057 0.383516
vn -0.844632 0.186294 -0.501888
v 0.240195 -0.297025 0.222456
vn -0.760885 0.288297 -0.581325
v -0.201459 -0.281808 0.333454
vn 0.0821149 0.176687 -0.980836
v 0.329959 -0.314726 0.0221988
vn -0.501968 0.281531 -0.817782
v 0.0234457 -0.31224 0.228738
vn 0.43218 0.418072 -0.799022
v 0.0888999 -0.320237 0.198204
vn 0.621227 0.437217 0.650321
v -0.50495 -0.623566 0.286544
vn -0.65883 0.173191 0.732084
v 0.360598 -0.21973 -0.142223
vn 0.200476 -0.240051 -0.949834
v -0.0123792 -0.352654 0.202669
vn 0.33906 -0.58116 -0.739792
v -0.0408632 -0.365466 0.128599
vn -0.0607905 -0.991826 0.112182
v 0.266804 -0.307119 0.342104
vn -0.49273 -0.869688 -0.0293331
v 0.0539578 0.587399 -0.491057
vn -0.566905 -0.458472 -0.684414
v 0.326547 -0.34818 0.056122
vn -0.558422 -0.676589 0.479992
v 0.475739 -0.611989 -0.000873646
vn -0.48333 0.337771 0.807653
v -0.0636595 -0.274823 0.627504
vn 0.035565 -0.981162 0.189885
v -0.0512483 -0.286511 0.56423
vn 0.627458 -0.609766 -0.484234
v 0.10367 -0.286302 0.382185
vn 0.83665 0.546616 -0.0350376
v 0.370481 -0.341638 0.0314071
vn 0.77651 -0.485942 -0.401114
v 0.460021 -0.611989 -0.0532133
vn -0.481124 0.584848 -0.653049
v 0.354991 0.445203 -0.411848
vn -0.851495 -0.00628754 0.524325
v 0.281884 -0.288092 0.238939
vn 0.562378 0.745657 0.357388
v -0.193064 -0.274532 0.378429
vn 0.786569 0.0914268 0.610696
v -0.223033 -0.324979 0.276157
vn 0.370333 -0.248454 0.895055
v -0.0120665 -0.308981 0.259234
vn -0.451565 0.65911 0.601385
v -0.0542164 -0.291554 0.339485
vn -0.81029 0.561292 0.16847
v 0.0492812 -0.324461 0.175305
vn -0.940346 0.295894 0.16792
v 0.0783383 -0.325421 0.148193
vn 0.438533 0.357293 -0.824639
v -0.247299 -0.229012 -0.121225
vn -0.71174 0.554739 0.430918
v -0.225168 -0.239009 -0.160232
vn -0.169915 -0.257006 -0.951355
v -0.0830171 -0.23462 0.662394
vn -0.342324 -0.115501 0.932456
v 0.378408 0.0826806 -0.26373
vn 0.518612 0.30402 -0.799133
v 0.354758 0.0462016 -0.242489
vn -0.384075 -0.72198 -0.575527
v 0.0731586 -0.356577 0.174087
vn 0.0528977 -0.994363 0.0918954
v -0.0232486 -0.335371 0.100551
vn 0.505219 0.417334 -0.755372
v 0.335232 -0.30101 0.113236
vn -0.931949 0.34095 -0.123383
v 0.204039 -0.311805 0.36379
vn 0.747082 -0.311176 0.587399
v 0.061359 0.644178 -0.492139
vn -0.432272 0.636096 -0.639157
v 0.08744 0.610217 -0.490992
vn 0.922396 -0.113197 0.369286
v -0.0888389 -0.251346 0.55373
vn 0.478138 -0.0568846 -0.87644
v 0.100495 -0.235904 0.635969
vn -0.0586665 0.982323 -0.177763
v 0.070587 -0.270947 0.648415
vn -0.92947 -0.289561 0.228562
v 0.351572 -0.307566 -0.0960528
vn -0.0170562 -0.260583 -0.965301
v 0.351721 0.0444872 -0.198009
vn -0.518612 -0.30402 0.799133
v 0.388366 -0.206625 -0.103037
vn 0.951131 -0.0289532 0.307428
v 0.396501 0.425247 -0.40718
vn 0.836654 0.0962782 0.539204
v -0.239945 -0.292473 0.24611
vn 0.139153 0.97448 -0.176143
v -0.235703 -0.269649 0.375739
vn -0.704039 0.709969 0.0165666
v 0.350687 -0.308617 0.0549244
vn 0.287134 0.667438 0.687081
v -0.27066 -0.322836 0.25039
vn -0.933346 -0.289859 0.21177
v -0.14707 -0.298315 0.591796
vn -0.521179 -0.473264 0.710206
v 0.347425 -0.23961 -0.103341
vn -0.492316 -0.658596 0.569102
v -0.0706493 -0.329286 0.128667
vn -0.919277 0.288057 -0.268242
v 0.0949704 -0.321061 0.363231
vn -0.0246932 -0.748786 -0.662352
v 0.0438253 0.614199 -0.457533
vn -0.0163506 0.0211826 0.999642
v -0.135571 -0.28486 0.549096
vn -0.267083 -0.384894 -0.883472
v 0.184925 -0.339588 -0.0923546
vn 0.889965 -0.4447 0.10102
v 0.361435 -0.282449 -0.0667796
vn 0.654208 0.615181 0.439959
v 0.387207 0.0550784 -0.218054
vn 0.91165 0.0620692 0.406253
v -0.150643 -0.337447 -0.00127709
vn 0.890686 0.312927 0.329782
v -0.183853 -0.37037 0.010923
vn -0.428272 -0.60758 0.668902
v -0.00730505 -0.294683 0.336752
vn 0.759769 0.00418316 0.650179
v 0.131688 -0.33982 0.047547
vn 0.800604 0.501508 0.327907
v 0.103901 -0.374899 0.0609456
vn -0.0355873 -0.55521 0.830948
v 0.12057 -0.376439 0.0226033
vn 0.106465 -0.427263 -0.897837
v 0.171843 -0.290996 -0.100249
vn 0.426237 0.89085 -0.157191
v -0.21793 -0.263104 -0.117261
vn 0.137158 -0.938037 0.318235
v 0.301166 -0.296924 0.367112
vn 0.453811 -0.255602 0.853653
v 0.0793326 -0.312972 0.413242
vn 0.0136886 -0.805596 0.592307
v 0.117786 -0.264126 0.670531
vn 0.515034 -0.139183 0.845794
v 0.109231 -0.272957 0.624552
vn 0.409872 -0.595276 -0.691123
v -0.101682 -0.282095 0.575808
vn 0.594506 -0.763247 0.253014
v 0.347182 0.0873039 -0.231769
vn -0.456054 0.837349 0.301432
v 0.352627 -0.190048 -0.114769
vn -0.617744 0.765054 0.18189
v -0.168339 -0.364161 -0.0368712
vn 0.2658 -0.559129 -0.785318
v -0.186947 -0.330686 -0.0183787
vn -0.723097 0.674915 -0.147038
v 0.373726 0.46099 -0.443737
vn 0.417337 0.747038 -0.517459
v 0.0905857 -0.342541 0.0439682
vn -0.792719 0.488794 -0.364249
v 0.15344 -0.31927 -0.0625804
vn -0.597366 -0.0306285 0.801383
v 0.316968 -0.294612 -0.0627106
vn -0.94707 0.31763 0.0465783
v -0.226584 -0.307569 0.369672
vn -0.123171 -0.975768 0.180848
v 0.345545 -0.331825 -0.0531699
vn 0.264375 -0.774154 0.575145
v 0.154504 -0.328962 -0.114625
vn -0.750314 -0.297878 -0.590167
v 0.376554 0.413858 -0.439709
vn -0.306649 -0.769024 -0.560865
v -0.134501 -0.251239 0.572286
vn -0.392677 0.82166 0.413135
v -0.196781 -0.225049 -0.131318
vn 0.720873 0.649217 0.242608
f 17//17 4//4 1//1
f 2//2 4//4 17//17
f 1//1 2//2 17//17
f 4//4 2//2 1//1
f 39//39 20//20 16//16
f 6//6 20//20 39//39
f 39//39 16//16 6//6
f 6//6 16//16 20//20
f 41//41 18//18 13//13
f 11//11 18//18 41//41
f 41//41 13//13 11//11
f 11//11 13//13 18//18
f 8//8 28//28 43//43
f 43//43 10//10 8//8
f 8//8 10//10 28//28
f 47//47 31//31 7//7
f 21//21 31//31 47//47
f 31//31 21//21 7//7
f 29//29 46//46 51//51
f 51//51 46//46 3//3
f 3//3 29//29 51//51
f 46//46 29//29 3//3
f 53//53 34//34 9//9
f 9//9 25//25 53//53
f 25//25 34//34 53//53
f 34//34 25//25 9//9
f 56//56 37//37 18//18
f 15//15 37//37 56//56
f 56//56 18//18 15//15
f 15//15 18//18 37//37
f 62//62 47//47 7//7
f 21//21 47//47 62//62
f 7//7 21//21 62//62
f 58//58 59//59 65//65
f 38//38 58//58 65//65
f 65//65 59//59 38//38
f 59//59 58//58 38//38
f 26//26 30//30 67//67
f 67//67 30//30 27//27
f 67//67 27//27 26//26
f 26//26 27//27 30//30
f 22//22 23//23 68//68
f 68//68 24//24 22//22
f 23//23 24//24 68//68
f 24//24 23//23 22//22
f 80//80 50//50 36//36
f 45//45 50//50 80//80
f 36//36 45//45 80//80
f 50//50 45//45 36//36
f 55//55 78//78 81//81
f 81//81 78//78 5//5
f 5//5 55//55 81//81
f 78//78 55//55 5//5
f 19//19 66//66 84//84
f 84//84 66//66 42//42
f 84//84 42//42 19//19
f 19//19 42//42 66//66
f 86//86 70//70 69//69
f 86//86 69//69 44//44
f 44//44 70//70 86//86
f 44//44 69//69 70//70
f 14//14 57//57 93//93
f 93//93 57//57 12//12
f 12//12 14//14 93//93
f 57//57 14//14 12//12
f 99//99 43//43 28//28
f 10//10 43//43 99//99
f 99//99 28//28 10//10
f 100//100 49//49 32//32
f 32//32 33//33 100//100
f 49//49 33//33 32//32
f 100//100 85//85 49//49
f 33//33 85//85 100//100
f 33//33 49//49 85//85
f 102//102 101//101 73//73
f 72//72 101//101 102//102
f 102//102 73//73 72//72
f 72//72 73//73 101//101
f 103//103 71//71 48//48
f 103//103 71//71 31//31
f 103//103 48//48 31//31
f 31//31 48//48 71//71
f 104//104 90//90 63//63
f 63//63 64//64 104//104
f 90//90 64//64 63//63
f 75//75 90//90 104//104
f 64//64 75//75 104//104
f 90//90 75//75 64//64
f 105//105 83//83 76//76
f 105//105 76//76 40//40
f 40//40 83//83 105//105
f 40//40 76//76 83//83
f 107//107 106//106 92//92
f 91//91 106//106 107//107
f 107//107 92//92 91//91
f 91//91 92//92 106//106
f 109//109 95//95 94//94
f 94//94 96//96 109//109
f 109//109 96//96 95//95
f 94//94 95//95 96//96
f 54//54 79//79 112//112
f 112//112 79//79 35//35
f 35//35 54//54 112//112
f 79//79 54//54 35//35
f 89//89 111//111 113//113
f 113//113 111//111 74//74
f 74//74 89//89 113//113
f 111//111 89//89 74//74
f 114//114 110//110 97//97
f 88//88 110//110 114//114
f 114//114 97//97 88//88
f 88//88 97//97 110//110
f 115//115 108//108 77//77
f 52//52 108//108 115//115
f 115//115 77//77 52//52
f 52//52 77//77 108//108
f 82//82 103//103 116//116
f 116//116 87//87 82//82
f 82//82 87//87 103//103
f 116//116 103//103 71//71
f 71//71 87//87 116//116
f 103//103 87//87 71//71
f 60//60 98//98 117//117
f 117//117 98//98 61//61
f 117//117 61//61 60//60
f 60//60 61//61 98//98
