# Created by Open3D 
# object name: d75a219d343d2469e22abcbea1db98d0
# number of vertices: 16
# number of triangles: 16
v 0.219582 0.486272 -0.353556
vn -0.797408 0.598274 -0.0787954
v 0.47621 0.116725 -0.136674
vn 0.459679 0.287618 0.840221
v 0.460559 0.132633 -0.177253
vn 0.00133557 0.624784 -0.780797
v 0.244338 0.457849 -0.374587
vn 0.0744106 -0.937861 -0.338938
v 0.255285 0.478921 -0.325377
vn 0.235026 -0.437528 0.867947
v -0.461367 0.265593 0.0514466
vn 1 0 0
v 0.428611 0.101343 -0.149063
vn -0.933013 -1.7723e-07 0.359843
v -0.41005 0.19592 -0.0953248
vn -0.0790983 0.516701 0.852504
v -0.50132 0.253816 0.030188
vn -0.419979 -0.533443 -0.734204
v -0.50132 0.266162 0.0738873
vn -0.354389 -0.357489 0.864066
v 0.465925 0.0834195 -0.163342
vn 0.379225 -0.802385 -0.460832
v 0.270262 0.493869 -0.36345
vn 0.496437 0.752557 -0.432675
v -0.44061 0.165738 -0.124925
vn -0.933005 -3.4594e-06 -0.359863
v -0.403158 0.152114 -0.113193
vn 0.476351 -0.812322 0.336485
v -0.394934 0.188551 -0.134514
vn 0.403183 0.399297 -0.823411
v -0.50132 0.300006 0.0492977
vn -0.137693 0.95317 -0.269273
f 2//2 7//7 11//11
f 11//11 3//3 2//2
f 11//11 7//7 3//3
f 2//2 3//3 7//7
f 12//12 5//5 4//4
f 1//1 5//5 12//12
f 12//12 4//4 1//1
f 1//1 4//4 5//5
f 15//15 14//14 13//13
f 8//8 14//14 15//15
f 15//15 13//13 8//8
f 8//8 13//13 14//14
f 9//9 10//10 16//16
f 16//16 10//10 6//6
f 6//6 9//9 16//16
f 10//10 9//9 6//6
