# Created by Open3D 
# object name: 13d5f9d6a7464e39f0f01f1432a517c3
# number of vertices: 12
# number of triangles: 12
v 0.296344 0.139008 -0.424779
vn 0.493594 -0.545261 -0.677536
v 0.301592 0.171494 -0.398369
vn 0.342273 0.893115 0.291882
v 0.25117 0.155483 -0.422217
vn -0.773252 0.4705 -0.425101
v 0.274695 0.135649 -0.389117
vn -0.17607 -0.603671 0.777548
v 0.233395 0.79385 0.0157921
vn 0.79079 -0.539921 -0.288334
v 0.21019 0.830992 0.00810437
vn -0.197446 0.612063 -0.765763
v 0.191566 0.79385 0.0265773
vn -0.834879 -0.458599 0.304409
v 0.22464 0.830992 0.0477364
vn 0.235185 0.33573 0.912126
v 0.0227483 0.830992 0.282449
vn -0.749732 0.00540105 -0.66172
v 0.0755523 0.830992 0.282434
vn 0.715866 0.545054 -0.436409
v 0.060932 0.79385 0.298695
vn 0 -1 0
v 0.0443148 0.830992 0.317826
vn 0.000267824 0.400983 0.916085
f 2//2 3//3 4//4
f 1//1 2//2 4//4
f 4//4 3//3 1//1
f 3//3 2//2 1//1
f 5//5 6//6 8//8
f 6//6 7//7 8//8
f 8//8 7//7 5//5
f 7//7 6//6 5//5
f 12//12 11//11 10//10
f 9//9 11//11 12//12
f 12//12 10//10 9//9
f 9//9 10//10 11//11
