# Created by Open3D 
# object name: 34128cd8b8ddbbedd92903da5c4b5ef6
# number of vertices: 55
# number of triangles: 60
v 0.0407229 0.0313385 0.129454
vn -0.750159 0.429814 0.502516
v 0.0572807 0.000719235 -0.0276796
vn 0.681245 0.345447 -0.645423
v 0.0459626 0.000719235 0.0119941
vn -0.00565403 -0.684779 0.728728
v 0.647968 0.0192616 0.257465
vn 0.503341 -0.457279 -0.733174
v 0.632577 0.0552306 0.272775
vn 0.221504 0.946952 0.232849
v 0.593082 0.0313385 0.260562
vn -0.826081 -0.118998 -0.550845
v 0.0480785 0.000719235 0.0920067
vn -0.465942 -0.666574 -0.581875
v 0.209039 -0.540563 0.00630079
vn 0.509953 -0.59149 0.62457
v 0.00801285 0.000719235 -0.0280619
vn -0.707377 -0.677417 -0.2018
v -0.414117 0.000719235 0.0394539
vn -0.119497 -0.703772 0.700304
v -0.437013 0.0313385 0.0165262
vn -0.759949 0.623637 -0.183177
v -0.402589 0.000719235 -0.00837077
vn 0.143447 -0.522223 -0.840658
v -0.282572 0.000719235 0.0529536
vn -0.744726 -0.467328 0.476432
v -0.243376 0.000719235 0.0336013
vn 0.629147 -0.664962 -0.402491
v 0.54582 0.0313385 0.237617
vn 0.149883 0.546264 0.824094
v 0.1802 -0.540563 -0.0387236
vn 0.15659 -0.986865 0.0396999
v 0.0732564 0.0313385 0.103403
vn 0.623628 0.660733 -0.417755
v 0.607631 0.568152 0.131861
vn 0.51388 0.523854 0.679341
v 0.270006 0.537533 0.153997
vn 0.144361 -0.610517 -0.778736
v -0.385579 0.0313385 0.0253027
vn 0.721735 0.669951 0.173966
v 0.563824 0.000719235 0.201034
vn 0.81664 -0.540504 -0.202373
v 0.625267 0.0160289 0.292207
vn -0.03754 -0.404936 0.913574
v 0.156415 -0.540563 -0.0763393
vn -0.576361 -0.618746 -0.533818
v 0.149562 -0.509944 -0.0411349
vn -0.670778 0.608408 0.424142
v -0.223244 0.537533 -0.114693
vn 0.867422 -0.450191 0.211913
v -0.254913 0.568152 -0.106447
vn 0.370688 0.924332 0.0905598
v -0.243252 0.0313385 0.0638287
vn 0.365536 0.564146 0.740353
v 0.0771311 0.000719235 0.135377
vn 0.487015 -0.626833 0.608192
v 0.533109 0.0313385 0.186324
vn -0.122165 0.730686 -0.671694
v 0.51853 0.000719235 0.209272
vn -0.736613 -0.651214 0.182542
v 0.580577 0.537533 0.132402
vn -0.983751 -0.109636 -0.142177
v 0.614695 0.517621 0.121949
vn 0.711535 -0.622924 0.32509
v 0.183368 -0.509944 -0.0776348
vn 0.658829 0.626418 -0.416587
v 0.504013 0.537533 0.166633
vn -0.0735289 0.067308 0.995019
v 0.262624 0.537533 0.199383
vn -0.147183 -0.589883 0.793961
v 0.486111 0.568152 0.142104
vn -0.0353831 0.83562 0.548167
v 0.0198329 0.0313385 0.000802454
vn 0 1 1.10691e-16
v -0.27525 0.537533 -0.0882501
vn -0.19884 -0.618671 0.760072
v -0.269321 0.0313385 0.0230796
vn -0.331202 0.663563 -0.670813
v -0.212275 0.0313385 0.187085
vn 0.0474426 0.422775 0.904992
v 0.249116 0.568152 0.172874
vn -0.666543 0.73754 -0.108423
v 0.614695 0.555717 0.0925724
vn -0.201863 0.161269 -0.966045
v 0.459219 0.537533 0.142188
vn -0.444602 -0.456686 0.770563
v -0.264127 0.537533 -0.13378
vn -0.209126 -0.393204 -0.895353
v -0.242345 0.0313385 0.143102
vn -0.825308 0.492676 -0.275927
v 0.17989 -0.509944 -0.00947314
vn -0.666232 0.611579 0.426738
v 0.451015 0.537533 0.0892836
vn -0.317061 -0.690823 -0.649797
v 0.436706 0.568152 0.12062
vn -0.770562 0.618633 0.153385
v -0.300731 0.568152 -0.110041
vn -0.867422 0.450191 -0.211913
v -0.196771 0.0313385 0.140713
vn 0.778297 0.333346 -0.532103
v 0.210851 -0.509944 -0.0347524
vn 0.745942 0.463985 -0.477795
v 0.299303 0.568152 0.182177
vn 0.855874 0.498093 0.139221
v 0.481987 0.568152 0.184069
vn -0.441168 0.389686 0.808403
v 0.475719 0.568152 0.101584
vn 0.78188 0.148356 -0.60552
v -0.220243 0.000719235 0.156247
vn 0 -1 0
f 20//20 11//11 10//10
f 10//10 12//12 20//20
f 20//20 12//12 11//11
f 10//10 11//11 12//12
f 4//4 5//5 22//22
f 22//22 6//6 4//4
f 5//5 6//6 22//22
f 6//6 5//5 4//4
f 7//7 17//17 28//28
f 28//28 17//17 1//1
f 1//1 7//7 28//28
f 17//17 7//7 1//1
f 30//30 21//21 15//15
f 30//30 29//29 21//21
f 15//15 29//29 30//30
f 15//15 21//21 29//29
f 23//23 24//24 33//33
f 33//33 24//24 16//16
f 16//16 23//23 33//33
f 24//24 23//23 16//16
f 37//37 3//3 2//2
f 2//2 9//9 37//37
f 37//37 9//9 3//3
f 2//2 3//3 9//9
f 39//39 27//27 14//14
f 13//13 27//27 39//39
f 39//39 14//14 13//13
f 13//13 14//14 27//27
f 42//42 32//32 31//31
f 18//18 32//32 42//42
f 42//42 31//31 18//18
f 18//18 31//31 32//32
f 25//25 38//38 44//44
f 44//44 26//26 25//25
f 25//25 26//26 38//38
f 49//49 44//44 38//38
f 26//26 44//44 49//49
f 49//49 38//38 26//26
f 16//16 46//46 51//51
f 51//51 46//46 8//8
f 8//8 16//16 51//51
f 46//46 16//16 8//8
f 52//52 41//41 35//35
f 52//52 35//35 19//19
f 19//19 41//41 52//52
f 19//19 35//35 41//41
f 36//36 43//43 53//53
f 53//53 43//43 34//34
f 34//34 36//36 53//53
f 34//34 36//36 43//43
f 54//54 48//48 36//36
f 36//36 43//43 54//54
f 48//48 43//43 36//36
f 47//47 48//48 54//54
f 43//43 47//47 54//54
f 48//48 47//47 43//43
f 45//45 50//50 55//55
f 55//55 50//50 40//40
f 40//40 45//45 55//55
f 50//50 45//45 40//40
