# Created by Open3D 
# object name: 4edcf59d45bfff5a5b903ba10d2ec446
# number of vertices: 43
# number of triangles: 46
v 0.100276 -0.723956 0.28764
vn -0.435646 0.0735682 0.897106
v -0.17816 0.198805 0.212907
vn 0.663319 0.703565 -0.254959
v -0.309748 0.152733 0.210062
vn 0.499081 -0.127018 -0.857196
v -0.337069 0.13725 0.241828
vn -0.454831 -0.823528 0.339013
v -0.198206 0.164317 0.210062
vn -0.380896 -0.696891 -0.607668
v -0.184243 0.166846 0.25337
vn 0.555426 -0.383698 0.737752
v -0.326756 -0.728228 0.0891863
vn -0.875524 0.48156 0.0394615
v -0.292091 -0.728228 0.107603
vn 0.932328 0.360406 0.0295335
v -0.21916 0.195704 0.242161
vn -0.846775 0.471941 0.245447
v 0.160469 0.390769 0.22206
vn -0.445952 -0.728239 -0.520379
v 0.171299 -0.250507 0.265897
vn 0.911698 0.244853 -0.32993
v 0.337607 0.822107 0.22474
vn 0.656823 0.639706 -0.399199
v 0.0836376 -0.728228 0.239657
vn -0.719363 -0.620362 -0.312518
v -0.185999 -0.694328 0.217222
vn 0.484749 0.550116 -0.679993
v 0.308518 0.785661 0.210362
vn -0.668295 -0.126823 -0.733006
v -0.120549 0.651325 0.210456
vn 0.59246 0.498061 -0.633187
v 0.151406 0.422119 0.250688
vn -0.704178 0.562581 0.43317
v 0.185272 0.422119 0.221666
vn 0.689687 0.586803 -0.424257
v 0.122899 -0.253608 0.251671
vn -0.509895 -0.136942 -0.849267
v 0.130996 -0.235289 0.28764
vn -0.231635 0.744861 0.625722
v 0.130112 -0.734673 0.262754
vn 0.762328 -0.502762 0.407537
v -0.337069 0.17839 0.235732
vn -0.571502 0.815175 -0.094207
v -0.176858 0.651325 0.211676
vn -0.594217 0.443291 -0.671118
v -0.142135 0.651325 0.244165
vn 0.185479 0.406998 0.8944
v -0.223617 -0.694328 0.247222
vn -0.466316 0.573585 0.673461
v 0.285155 0.197195 0.210062
vn 0.564557 0.462769 -0.683462
v 0.142402 -0.277759 0.28764
vn -0.080741 -0.880714 0.466716
v 0.337607 0.770353 0.233694
vn 0.679344 -0.664798 0.3107
v 0.266904 0.198805 0.25097
vn 0.284511 -0.320212 0.903614
v -0.312791 -0.766314 0.113112
vn -0.396964 -0.533019 0.747202
v -0.176214 -0.697429 0.257257
vn 0.610721 -0.201295 0.765833
v -0.297891 0.166846 0.260253
vn 0.729663 0.100231 0.676421
v 0.246501 0.163746 0.210379
vn -0.023731 -0.999305 0.0287292
v 0.186544 0.390769 0.264448
vn 0.580784 -0.45099 0.677715
v -0.139772 0.617184 0.219521
vn 0.345574 -0.862655 -0.36933
v 0.236584 0.198805 0.225925
vn -0.624248 0.71847 -0.306782
v 0.132153 -0.728228 0.222742
vn 0.435646 -0.0735682 -0.897106
v -0.312791 -0.762933 0.0718484
vn 0.438171 -0.357452 -0.824763
v -0.243356 -0.696602 0.210062
vn -0.610721 0.201295 -0.765833
v -0.211359 -0.728228 0.228535
vn -0.00654691 -0.999945 -0.0082097
v 0.311619 0.807782 0.250913
vn -0.57381 0.139625 0.806998
v -0.181823 0.614084 0.240109
vn -0.59246 -0.498061 0.633187
v 0.102567 -0.694328 0.246069
vn 0.136479 0.990641 0.00184126
f 2//2 5//5 9//9
f 5//5 6//6 9//9
f 9//9 6//6 2//2
f 6//6 5//5 2//2
f 27//27 20//20 19//19
f 11//11 20//20 27//27
f 27//27 19//19 11//11
f 11//11 19//19 20//20
f 3//3 22//22 32//32
f 32//32 22//22 4//4
f 32//32 4//4 3//3
f 3//3 4//4 22//22
f 34//34 17//17 10//10
f 34//34 18//18 17//17
f 10//10 18//18 34//34
f 10//10 17//17 18//18
f 35//35 23//23 16//16
f 16//16 24//24 35//35
f 16//16 23//23 24//24
f 36//36 33//33 29//29
f 26//26 33//33 36//36
f 36//36 29//29 26//26
f 26//26 29//29 33//33
f 8//8 30//30 38//38
f 38//38 30//30 7//7
f 7//7 8//8 38//38
f 30//30 8//8 7//7
f 25//25 39//39 40//40
f 40//40 39//39 14//14
f 39//39 25//25 14//14
f 40//40 31//31 25//25
f 14//14 31//31 40//40
f 14//14 25//25 31//31
f 41//41 28//28 12//12
f 15//15 28//28 41//41
f 12//12 15//15 41//41
f 28//28 15//15 12//12
f 23//23 35//35 42//42
f 42//42 35//35 24//24
f 42//42 24//24 23//23
f 21//21 37//37 43//43
f 43//43 37//37 13//13
f 37//37 21//21 13//13
f 1//1 21//21 43//43
f 43//43 13//13 1//1
f 1//1 13//13 21//21
