# Created by Open3D 
# object name: 5c2d14889827e1fc14038d588fd1342f
# number of vertices: 8
# number of triangles: 8
v -0.0407834 0.303518 -0.161507
vn 0.761298 0.16377 -0.627379
v -0.0831095 0.32028 -0.154016
vn -0.611848 0.775032 0.158012
v -0.0791601 0.273222 -0.161507
vn -0.396897 -0.805836 -0.439434
v -0.0509205 0.287755 -0.123446
vn 0.115792 -0.146674 0.982384
v -0.15123 0.622662 0.168123
vn -0.112221 0.293535 0.949338
v -0.172116 0.635829 0.127754
vn -0.832603 0.42722 -0.352498
v -0.158777 0.588119 0.144083
vn 0.0387623 -0.943913 -0.327912
v -0.129515 0.635829 0.13279
vn 0.896776 0.103491 -0.430213
f 4//4 3//3 1//1
f 1//1 2//2 4//4
f 2//2 3//3 4//4
f 3//3 2//2 1//1
f 5//5 7//7 8//8
f 8//8 7//7 6//6
f 8//8 6//6 5//5
f 5//5 6//6 7//7
