# Created by Open3D 
# object name: b8166cce2dc8ea4f8c58bec49e6e6862
# number of vertices: 17
# number of triangles: 18
v 0.0195906 -0.0605227 -0.108213
vn 0.15496 0.354451 -0.922145
v 0.521589 0.170385 -0.0785865
vn 0.953362 -0.20532 0.221232
v 0.361237 -0.311483 0.0179441
vn 0.0591285 0.857022 0.511877
v 0.482659 0.202063 -0.0757222
vn -0.307762 0.820909 0.481031
v 0.0424901 -0.090877 -0.0766763
vn 0.752426 -0.656228 -0.0567383
v 0.393536 -0.349044 0.00123267
vn 0.93398 -0.334937 0.124496
v 0.477545 0.155676 -0.0547789
vn -0.315777 -0.462949 0.828229
v 0.479791 0.165615 -0.097189
vn -0.518762 -0.580787 -0.627354
v 0.0285567 -0.0539924 -0.0648401
vn -0.046468 0.702634 0.710032
v -0.00207082 -0.0875495 -0.0828854
vn -0.87893 -0.410142 0.243446
v 0.500518 0.198829 -0.113725
vn 0.315777 0.462949 -0.828229
v 0.482659 0.398275 -0.0776611
vn -0.563788 0.202013 -0.800833
v 0.349313 -0.349044 0.00634094
vn -0.672961 -0.693332 0.25771
v 0.521589 0.3799 -0.0570631
vn 0.810198 -0.568075 -0.144461
v 0.482659 0.385695 -0.0281943
vn -0.578172 -0.563845 0.589743
v 0.361237 -0.328865 -0.0288214
vn -0.108533 0.324695 -0.939571
v 0.505052 0.419475 -0.0354381
vn 0.310844 0.921143 0.234246
f 8//8 7//7 4//4
f 2//2 4//4 7//7
f 2//2 7//7 8//8
f 5//5 9//9 10//10
f 9//9 5//5 1//1
f 10//10 9//9 1//1
f 1//1 5//5 10//10
f 11//11 8//8 4//4
f 11//11 4//4 2//2
f 2//2 8//8 11//11
f 6//6 13//13 16//16
f 16//16 13//13 3//3
f 3//3 6//6 16//16
f 13//13 6//6 3//3
f 17//17 15//15 14//14
f 12//12 15//15 17//17
f 17//17 14//14 12//12
f 12//12 14//14 15//15
