# Created by Open3D 
# object name: bbddf00c2dda43a2f21cf17406f1f25
# number of vertices: 45
# number of triangles: 50
v -0.588526 -0.66365 0.144121
vn -0.202263 0.534842 0.820387
v -0.565554 -0.701483 0.128429
vn 0.704005 -0.588829 0.397061
v -0.605732 -0.701483 0.118524
vn -0.82834 -0.309175 -0.467187
v -0.0168424 -0.701483 -0.142474
vn -0.345218 0.632682 -0.693209
v 0.660584 0.298308 -0.147459
vn -0.400897 -0.62309 -0.671595
v -0.565739 -0.66365 0.103719
vn 0.20992 0.480602 -0.851443
v 0.696728 0.321492 -0.139558
vn 0.99902 0.0301024 0.0324458
v -0.0808531 -0.666854 -0.147459
vn -0.576952 0.0290484 -0.816261
v -0.0603615 -0.701483 -0.122562
vn 0.0738008 -0.410149 -0.909028
v 0.696728 -0.490243 0.0959669
vn 0.840468 -0.186634 0.508705
v 0.291623 0.660504 -0.0142686
vn -0.907 -0.419761 -0.0339463
v -0.0855036 -0.66365 -0.103445
vn -0.270334 0.451417 0.850378
v 0.266008 0.661694 0.147639
vn 0.467628 -0.583139 0.664284
v 0.248315 0.660504 0.109373
vn -0.155023 -0.106632 -0.982139
v 0.279009 0.698337 0.133428
vn 0.765358 0.526449 -0.370242
v 0.240921 0.698165 0.147639
vn -0.446358 0.876745 0.179119
v 0.658895 -0.457513 0.0861408
vn -0.43609 0.730027 0.526201
v 0.658895 0.309805 -0.106131
vn -0.0899288 -0.192774 0.977114
v -0.0394487 -0.66365 -0.135997
vn 0.476009 -0.0859985 -0.875225
v -0.00147784 -0.66365 -0.117356
vn -0.0697615 0.127692 -0.989357
v -0.0072085 -0.66365 -0.0676923
vn 0.472539 0.315469 -0.822914
v 0.333639 0.660504 -0.0313907
vn 0.576329 -0.303777 -0.75866
v 0.331855 0.660504 0.0162937
vn 0.36067 -0.294297 0.885046
v -0.0246227 -0.701483 -0.0992891
vn -0.0153987 0.159777 -0.987033
v -0.699308 0.464487 -0.122322
vn -0.421207 0.340964 -0.840434
v 0.696728 0.254614 0.0887223
vn 0.224579 0.0746116 0.971595
v 0.696728 -0.452083 0.0730374
vn 0.476378 0.302838 -0.825441
v 0.658895 -0.49567 0.0721417
vn -0.223709 -0.508257 -0.831643
v 0.213808 0.662239 0.147639
vn -0.765358 -0.526449 0.370242
v 0.658895 0.34466 -0.138469
vn -0.482568 0.838525 -0.252992
v 0.658895 -0.505588 0.115914
vn -0.476378 -0.302838 0.825441
v -0.699308 -0.454661 -0.0965523
vn -0.419525 -0.899922 -0.11891
v -0.699308 -0.416527 -0.119942
vn -0.256539 0.645812 -0.719107
v -0.661475 -0.437506 -0.0946434
vn 1 0 0
v 0.696728 0.22818 0.0540801
vn 0.177418 -0.824435 -0.537429
v -0.661475 0.472917 -0.0974743
vn 1 0 0
v 0.658895 0.265208 0.0599816
vn -1 0 0
v 0.315381 0.698337 -0.0113697
vn 0 1 0
v -0.699308 0.476271 -0.0771525
vn -0.524792 0.612334 0.591304
v 0.696728 0.279779 0.0501177
vn 0.56425 0.656347 -0.500829
v -0.053377 -0.66365 -0.0526305
vn -0.777366 0.628029 -0.0358005
v -0.00907376 -0.66365 -0.0271905
vn 0.310079 -0.021049 0.950478
v -0.699308 0.436464 -0.0933022
vn 0.0497453 -0.966419 0.252111
v -0.0382007 -0.701483 -0.0584194
vn 0 -1 0
v -0.699308 -0.423335 -0.0684192
vn -0.269697 0.503466 0.820845
f 2//2 3//3 6//6
f 1//1 2//2 6//6
f 6//6 3//3 1//1
f 3//3 2//2 1//1
f 16//16 15//15 14//14
f 13//13 14//14 15//15
f 13//13 15//15 16//16
f 19//19 12//12 9//9
f 8//8 12//12 19//19
f 19//19 9//9 8//8
f 8//8 9//9 12//12
f 9//9 19//19 24//24
f 4//4 9//9 24//24
f 4//4 9//9 19//19
f 19//19 20//20 24//24
f 24//24 20//20 4//4
f 4//4 19//19 20//20
f 17//17 27//27 28//28
f 28//28 27//27 10//10
f 27//27 17//17 10//10
f 29//29 16//16 14//14
f 29//29 14//14 13//13
f 13//13 16//16 29//29
f 5//5 18//18 30//30
f 30//30 18//18 7//7
f 30//30 7//7 5//5
f 5//5 7//7 18//18
f 17//17 28//28 31//31
f 31//31 28//28 10//10
f 10//10 17//17 31//31
f 38//38 23//23 22//22
f 11//11 23//23 38//38
f 38//38 22//22 11//11
f 11//11 22//22 23//23
f 35//35 37//37 40//40
f 40//40 37//37 26//26
f 26//26 35//35 40//40
f 37//37 35//35 26//26
f 36//36 39//39 43//43
f 43//43 39//39 25//25
f 25//25 36//36 43//43
f 39//39 36//36 25//25
f 44//44 42//42 41//41
f 21//21 42//42 44//44
f 44//44 41//41 21//21
f 21//21 41//41 42//42
f 32//32 34//34 45//45
f 45//45 34//34 33//33
f 45//45 33//33 32//32
f 32//32 33//33 34//34
