# Created by Open3D 
# object name: 647a6a5abae8ab1ef4530ecc4d13db49
# number of vertices: 5
# number of triangles: 6
v 0.178048 -0.173455 0.389662
vn -0.0573316 0.857645 -0.511037
v 0.161681 -0.21045 0.391613
vn -0.736318 -0.551557 -0.391945
v 0.205849 -0.21045 0.389496
vn 0.555964 -0.780664 -0.285424
v 0.212726 -0.186624 0.425873
vn 0.736318 0.551557 0.391945
v 0.171946 -0.191041 0.425873
vn -0.420555 -0.319832 0.849024
f 2//2 3//3 5//5
f 1//1 2//2 5//5
f 3//3 2//2 1//1
f 3//3 4//4 5//5
f 5//5 4//4 1//1
f 4//4 3//3 1//1
