# Created by Open3D 
# object name: 3222d3e3c90f4a3238b3634f169dcc74
# number of vertices: 37
# number of triangles: 38
v 0.53017 -0.251154 0.226006
vn 0.0499247 0.663862 0.746187
v 0.378954 -0.282742 -0.299337
vn -0.0575859 -0.906344 0.418599
v 0.205204 -0.282742 -0.273862
vn 0.274248 -0.611151 -0.742484
v 0.164615 -0.282742 -0.242638
vn -0.297062 -0.514722 0.804249
v -0.036581 -0.282742 0.27201
vn 0.755954 -0.645571 -0.108494
v 0.0392686 -0.282742 -0.208507
vn 0 -1 0
v 0.372503 -0.251154 -0.274101
vn -0.120791 0.463085 0.878044
v 0.21349 -0.251154 -0.250585
vn 0.553579 0.419212 0.719591
v 0.171288 -0.251154 -0.266173
vn -0.489196 0.596924 -0.6359
v 0.0467224 -0.251154 0.38451
vn -0.718796 0.55535 0.418232
v -0.341417 -0.251154 -0.0308352
vn -0.832176 0.553998 0.0238552
v -0.0541942 -0.251154 0.246881
vn -0.141696 0.536676 -0.831806
v 0.390175 -0.282742 -0.340063
vn 0.120791 -0.463085 -0.878044
v 0.361671 -0.251154 -0.318374
vn -0.79481 0.436249 -0.421857
v 0.026754 -0.251154 -0.181548
vn -0.686179 0.637282 0.350758
v 0.0785963 -0.251154 -0.188962
vn 0.787293 -0.188981 0.586903
v 0.0788384 -0.282742 0.406336
vn 0.0836329 -0.577105 0.812377
v -0.0765851 -0.282742 0.278825
vn -0.906391 -0.401911 0.130085
v 0.501993 -0.282742 0.214986
vn -0.732979 -0.666696 0.135123
v 0.522702 -0.251154 0.185498
vn -0.0618189 0.377461 -0.92396
v -0.306935 -0.282742 -0.00645716
vn -0.0105615 -0.495217 0.868705
v -0.0473982 -0.251154 0.294233
vn 0.126198 0.659731 0.74083
v 0.403353 -0.251154 -0.31264
vn 0.876241 0.481856 0.00401451
v 0.0597562 -0.251154 -0.225819
vn -0.111152 0.619302 -0.777245
v -0.691013 -0.251154 0.0313314
vn -0.787344 0.613625 -0.0596157
v -0.664732 -0.282742 0.0117642
vn 0.290013 -0.39211 -0.873008
v -0.66787 -0.282742 0.053207
vn -0.24019 -0.647716 0.72303
v -0.499286 -0.282742 -0.0702352
vn -0.0487357 -0.565198 -0.823514
v 0.556201 -0.282742 0.211359
vn 0.762699 -0.631286 -0.140602
v -0.308138 -0.282742 -0.0484378
vn 0.0096862 -0.604288 -0.796707
v -0.642808 -0.251154 0.047345
vn 0.785173 0.616416 0.0594513
v -0.493475 -0.282742 -0.0199428
vn 0.0435827 -0.675097 0.73644
v 0.052723 -0.282742 0.361453
vn -0.0803009 -0.620593 -0.78001
v 0.0880676 -0.251154 0.380254
vn 0.763295 0.469186 -0.444124
v -0.479047 -0.251154 -0.0424762
vn 0.777809 0.622042 -0.0898751
v -0.286586 -0.251154 -0.0301686
vn 0.682847 0.730299 -0.0195745
v -0.521053 -0.251154 -0.0399903
vn -0.875693 0.472147 0.101186
f 4//4 8//8 9//9
f 8//8 4//4 3//3
f 9//9 8//8 3//3
f 3//3 4//4 9//9
f 12//12 18//18 22//22
f 22//22 18//18 5//5
f 5//5 12//12 22//22
f 18//18 12//12 5//5
f 13//13 14//14 23//23
f 2//2 13//13 23//23
f 14//14 13//13 2//2
f 23//23 14//14 7//7
f 23//23 7//7 2//2
f 2//2 7//7 14//14
f 15//15 16//16 24//24
f 6//6 15//15 24//24
f 24//24 16//16 6//6
f 16//16 15//15 6//6
f 1//1 19//19 29//29
f 19//19 20//20 29//29
f 29//29 20//20 1//1
f 20//20 19//19 1//1
f 31//31 26//26 25//25
f 31//31 27//27 26//26
f 25//25 27//27 31//31
f 25//25 26//26 27//27
f 17//17 33//33 34//34
f 34//34 33//33 10//10
f 10//10 17//17 34//34
f 33//33 17//17 10//10
f 21//21 30//30 36//36
f 36//36 30//30 11//11
f 11//11 21//21 36//36
f 30//30 21//21 11//11
f 32//32 35//35 37//37
f 37//37 35//35 28//28
f 28//28 32//32 37//37
f 35//35 32//32 28//28
