# Created by Open3D 
# object name: 38ad5333308ec5b5f4b6538438a0b930
# number of vertices: 48
# number of triangles: 52
v 0.259258 0.181007 0.0613504
vn -0.759186 -0.120547 0.639613
v 0.287737 0.156237 0.0341732
vn 0.638795 -0.762986 -0.0989652
v 0.0445701 -0.267578 -0.343068
vn 0.91274 0.386139 0.133421
v 0.0163655 -0.267578 -0.373354
vn -0.559844 0.0910194 -0.823584
v 0.0254547 -0.302677 -0.333953
vn 0 -1 0
v -0.0690292 -0.267578 0.14564
vn 0 1 0
v -0.676111 -0.427373 0.345042
vn 0.0844849 0.415504 0.905659
v -0.473323 -0.302677 -0.350375
vn 0 -1 0
v -0.0847496 -0.267578 0.0328845
vn 0.350454 0.639415 -0.684347
v -0.0713435 -0.302677 0.0554341
vn 0.23359 -0.694492 -0.680527
v -0.111141 -0.267578 0.0678483
vn -0.604316 0.374197 -0.703405
v -0.0604616 -0.267578 -0.343068
vn -0.0844931 0.347668 -0.933803
v -0.0736961 -0.267578 0.0870238
vn 0.593446 0.718418 0.362903
v -0.124115 -0.267578 0.11137
vn -0.383066 0.451845 0.805666
v -0.142336 -0.302677 -0.356985
vn 0.820712 -0.29017 -0.492172
v -0.144069 -0.302677 0.0732489
vn -0.877525 -0.401891 -0.261599
v -0.454369 -0.267578 -0.328825
vn 0.626066 0.197343 0.754385
v -0.456166 -0.267578 -0.373795
vn 0.237784 0.41173 -0.879737
v 0.00833814 -0.267578 -0.318438
vn -0.634262 0.498819 0.59067
v -0.163403 -0.302677 -0.31447
vn 0.0144259 -0.395899 0.918181
v -0.167179 -0.267578 -0.341461
vn 0 1 0
v -0.0543225 -0.302677 0.101895
vn 0.673202 -0.469237 0.571502
v -0.218903 -0.302677 0.149202
vn -0.494003 -0.615213 -0.614389
v 0.415811 -0.302677 -0.160734
vn -0.590589 -0.432675 -0.681173
v 0.441998 -0.267578 -0.146812
vn 0.7883 0.549221 -0.277378
v 0.406948 -0.267578 -0.116423
vn -0.818768 0.496606 0.288099
v -0.496599 -0.267578 -0.34024
vn -0.888297 0.457896 0.0354878
v 0.431697 -0.302677 -0.115586
vn 0.51442 -0.619145 0.593322
v -0.0758842 -0.267578 -0.296877
vn -0.803318 0.287103 0.521778
v -0.186218 -0.302677 0.178078
vn 0.572641 -0.406037 0.712191
v -0.0446938 -0.302677 0.184422
vn 0.433041 0.310397 0.846244
v -0.700825 -0.450326 0.320444
vn -0.938388 -0.0809336 -0.335972
v 0.412751 -0.267578 0.319032
vn -0.519598 0.354433 -0.777428
v -0.188464 -0.302677 -0.356261
vn -0.820803 -0.401078 -0.406718
v -0.0366508 -0.302677 0.141945
vn 0.386015 -0.550382 -0.740319
v -0.102201 -0.302677 0.0917834
vn -0.136401 -0.899095 0.415959
v -0.231756 -0.267578 0.179548
vn -0.625617 0.327319 0.708142
v -0.0528454 -0.302677 -0.312029
vn 0 -1 0
v -0.662191 -0.4267 0.306001
vn 0.448754 0.382399 -0.807707
v 0.413437 -0.267578 0.365685
vn -0.461903 0.3769 0.802865
v -0.0329807 -0.267578 -0.300759
vn 0.853149 0.437028 0.284857
v -0.197431 -0.267578 0.151948
vn 0.494486 0.664985 -0.559713
v -0.081825 -0.302677 0.165062
vn -0.735122 -0.663491 -0.139195
v -0.666052 -0.47453 0.328305
vn 0.562392 -0.805536 0.186621
v 0.424516 -0.302677 0.342278
vn 0 -1 0
v 0.450632 -0.267578 0.340826
vn 0.950811 0.309455 -0.0139871
v 0.291065 0.209351 0.0481335
vn 0.771672 0.563358 0.295213
v 0.267213 0.193442 0.0168239
vn -0.549712 0.244398 -0.798803
f 9//9 11//11 13//13
f 13//13 10//10 9//9
f 9//9 10//10 11//11
f 19//19 5//5 3//3
f 4//4 5//5 19//19
f 3//3 4//4 19//19
f 5//5 4//4 3//3
f 27//27 18//18 8//8
f 17//17 18//18 27//27
f 8//8 17//17 27//27
f 18//18 17//17 8//8
f 24//24 25//25 28//28
f 28//28 26//26 24//24
f 25//25 26//26 28//28
f 26//26 25//25 24//24
f 34//34 21//21 15//15
f 20//20 21//21 34//34
f 15//15 20//20 34//34
f 21//21 20//20 15//15
f 14//14 16//16 36//36
f 36//36 16//16 11//11
f 16//16 14//14 11//11
f 13//13 14//14 36//36
f 14//14 13//13 11//11
f 36//36 11//11 10//10
f 36//36 22//22 13//13
f 10//10 22//22 36//36
f 10//10 13//13 22//22
f 29//29 38//38 41//41
f 41//41 38//38 12//12
f 12//12 29//29 41//41
f 38//38 29//29 12//12
f 42//42 37//37 30//30
f 23//23 37//37 42//42
f 42//42 30//30 23//23
f 23//23 30//30 37//37
f 43//43 35//35 31//31
f 6//6 35//35 43//43
f 43//43 31//31 6//6
f 6//6 31//31 35//35
f 32//32 39//39 44//44
f 44//44 39//39 7//7
f 7//7 32//32 44//44
f 39//39 32//32 7//7
f 40//40 45//45 46//46
f 46//46 45//45 33//33
f 33//33 40//40 46//46
f 45//45 40//40 33//33
f 1//1 47//47 48//48
f 48//48 47//47 2//2
f 48//48 2//2 1//1
f 1//1 2//2 47//47
