# Created by Open3D 
# object name: 419412b927d11c7d8312881285c04cb3
# number of vertices: 31
# number of triangles: 34
v 0.514886 -0.461384 -0.270556
vn 0.870693 -0.491457 -0.0190712
v -0.546705 0.0129726 0.451637
vn -0.992652 -0.0424769 0.113307
v 0.0172791 -0.270968 0.12949
vn 0.460932 -0.854545 -0.239362
v -0.541273 0.0563355 0.451191
vn 0.957736 0.0395683 -0.284914
v 0.686445 0.0129726 0.0744928
vn -0.560297 -0.113005 0.820547
v 0.473714 -0.468228 -0.250202
vn -0.854649 -0.505913 0.116735
v 0.714566 0.0563355 0.0524725
vn 0.542205 0.805764 0.238239
v -0.295127 0.0129726 -0.525989
vn 0 -1 0
v -0.534797 0.0129726 0.491667
vn 0.985798 -0.124663 -0.112524
v 0.0457003 -0.233669 0.126773
vn 0.934583 0.225632 0.275035
v -0.0254141 -0.254518 0.128751
vn -0.87668 -0.0881483 -0.472929
v -0.0150278 -0.284534 0.167956
vn -0.227178 -0.553633 0.801174
v -0.309932 0.0563355 -0.495769
vn -0.67916 0.0942758 0.727911
v 0.726364 0.0129726 0.0778585
vn 0.853113 -0.362889 0.374848
v 0.702396 0.0129726 0.0381906
vn 0.0787075 -0.491481 -0.867324
v -0.536692 0.0563355 0.491318
vn -0.951315 0.122097 0.283004
v 0.0159097 -0.229855 0.100415
vn -0.154645 0.443738 -0.882713
v 0.499885 0.0563355 0.2696
vn -0.506614 0.33082 -0.796179
v 0.524191 0.0129726 0.28216
vn 0 -1 0
v 0.51418 0.0563355 0.306548
vn -0.309638 0.1003 0.94555
v 0.674776 0.0563355 0.0486049
vn -0.853113 0.362889 -0.374848
v 0.00298813 -0.236157 0.149493
vn 0.0177342 0.67681 0.735944
v 0.118302 0.0563355 -0.0944623
vn -0.39223 0.574281 0.71858
v 0.494075 -0.430626 -0.289612
vn -0.462223 0.311182 -0.830371
v 0.547659 0.0563355 0.285245
vn 0.860403 0.385861 -0.332893
v -0.307793 0.0563355 -0.543422
vn -0.352408 0.451119 -0.819939
v -0.2735 0.0563355 -0.511427
vn 0.954246 0.295935 0.0428517
v 0.106732 0.0353712 -0.131872
vn -0.594571 0.000990914 -0.804043
v 0.155529 0.0563355 -0.121991
vn 0.862843 0.2776 -0.422422
v 0.497339 -0.426469 -0.247704
vn 0.258012 0.628928 0.733403
v 0.128525 0.0129726 -0.102076
vn 0.293354 -0.869809 0.396705
f 14//14 7//7 5//5
f 7//7 14//14 15//15
f 15//15 14//14 5//5
f 2//2 9//9 16//16
f 16//16 9//9 4//4
f 16//16 4//4 2//2
f 2//2 4//4 9//9
f 5//5 7//7 21//21
f 7//7 15//15 21//21
f 21//21 15//15 5//5
f 10//10 17//17 22//22
f 3//3 10//10 22//22
f 17//17 10//10 3//3
f 22//22 17//17 11//11
f 3//3 11//11 17//17
f 11//11 12//12 22//22
f 22//22 12//12 3//3
f 12//12 11//11 3//3
f 25//25 19//19 18//18
f 25//25 20//20 19//19
f 18//18 20//20 25//25
f 18//18 19//19 20//20
f 27//27 26//26 13//13
f 8//8 26//26 27//27
f 27//27 13//13 8//8
f 8//8 13//13 26//26
f 30//30 24//24 6//6
f 1//1 24//24 30//30
f 30//30 6//6 1//1
f 1//1 6//6 24//24
f 23//23 28//28 31//31
f 28//28 29//29 31//31
f 31//31 29//29 23//23
f 29//29 28//28 23//23
