# Created by Open3D 
# object name: 467e71e8e546721e1aa023603cb7e1bd
# number of vertices: 54
# number of triangles: 62
v 0.704541 -0.186838 -0.238902
vn -0.583438 -0.718399 -0.378818
v 0.736786 -0.190914 -0.260734
vn 0.564339 -0.454497 -0.689169
v 0.736786 -0.13932 -0.243835
vn 0.595647 0.580387 -0.555297
v 0.704541 -0.151163 -0.266785
vn -0.57379 0.310683 -0.757787
v 0.736786 -0.21417 0.273077
vn -0.605331 0.119914 0.786889
v 0.704541 -0.243286 0.301636
vn 0.549223 0.835675 -0.00149976
v 0.736786 -0.174496 -0.220637
vn 0.54195 -0.285696 0.790359
v 0.70999 -0.559278 -0.306532
vn -0.346512 -0.908812 0.232358
v 0.704541 -0.536457 -0.352942
vn -0.541951 -0.176297 -0.821711
v 0.704541 -0.150729 -0.224097
vn -0.593661 0.470613 0.652756
v 0.704541 -0.150555 0.19488
vn 0.060922 -0.976908 0.20479
v 0.736786 -0.136856 0.177335
vn 0.119268 -0.789061 -0.602625
v 0.736786 -0.16522 0.224539
vn -0.640355 -0.641455 -0.42247
v 0.736786 -0.187262 0.164474
vn 0.516033 -0.789717 0.331749
v 0.736786 -0.214082 0.32199
vn -0.594602 -0.121126 -0.794844
v 0.736786 -0.0014226 -0.0365736
vn -0.508402 0.467822 -0.722959
v 0.704541 -0.0981992 0.127429
vn -1 0 0
v 0.736786 -0.534404 -0.329541
vn 0.802308 -0.164132 -0.573902
v 0.736786 -0.530684 -0.282276
vn 0.443895 -0.0856218 0.891979
v 0.704541 -0.00847115 -0.0741292
vn 0.683033 0.688878 0.242721
v 0.704541 -0.168946 0.151101
vn -0.534411 0.208961 -0.818987
v 0.736786 -0.123411 0.131264
vn 0.50772 -0.815048 -0.279138
v 0.492441 0.222675 -0.388256
vn 0.281787 -0.675035 -0.681853
v 0.458849 0.25367 -0.388304
vn 0 1 0
v 0.440011 0.222675 -0.365403
vn -0.665146 -0.721167 -0.193649
v 0.736786 0.0145504 -0.0819074
vn -0.651638 -0.412088 0.636829
v 0.736786 -0.486973 -0.233963
vn -0.638597 0.194377 -0.744588
v 0.736786 -0.0872383 0.154074
vn 0.160241 0.345562 0.924613
v 0.736786 -0.0729697 0.112412
vn 0.459715 0.473694 -0.751183
v 0.704541 0.0340795 -0.046595
vn 0.510205 -0.811174 -0.285811
v 0.704541 -0.517595 -0.311881
vn -0.826966 0.546021 0.134123
v 0.736786 -0.48866 -0.313088
vn 0.430326 0.89989 -0.0708357
v -0.288844 0.151858 0.33722
vn -0.593275 0.471753 -0.652284
v -0.271184 0.125938 0.360463
vn -0.166425 -0.894653 0.414607
v -0.233242 0.141515 0.33722
vn 0.688737 -0.164026 -0.706213
v 0.704541 -0.19294 0.293964
vn 0.670836 -0.741604 0.00133094
v 0.704541 -0.506668 -0.253205
vn 0.645656 0.717627 0.261035
v 0.704541 -0.147285 0.242044
vn -0.130884 -0.937842 -0.321437
v 0.736786 -0.124381 0.218797
vn -0.199092 -0.947068 -0.251844
v 0.736786 -0.00424101 0.258554
vn -0.56086 0.807354 -0.183345
v 0.736786 -0.473102 -0.272097
vn -0.389663 -0.232623 0.891094
v 0.480871 0.222675 -0.348517
vn 0.366465 0.398477 0.840785
v 0.704541 0.0286566 0.28576
vn 0.54687 -0.0415893 -0.836184
v 0.704541 0.0778471 0.278132
vn 0.658397 0.704592 0.264694
v 0.704541 0.0709388 0.337769
vn -1 0 0
v 0.704541 0.114899 0.311659
vn 0.49297 -0.81447 -0.305972
v 0.704541 0.0174445 0.236387
vn 0.666221 0.0370458 0.744833
v 0.704541 -0.455794 -0.239924
vn 0.614037 -0.741731 -0.269803
v -0.253775 0.160278 0.369465
vn 0.132101 0.710137 0.69156
v 0.736786 0.094472 0.354843
vn 0.515055 0.335085 0.788946
v 0.736786 0.0487841 0.326128
vn 0.517294 -0.837283 0.177097
v 0.736786 0.0443299 0.256139
vn -0.628515 -0.758485 0.172247
v 0.736786 0.101883 0.266102
vn -0.512655 -0.57608 0.636644
v 0.736786 0.0851328 0.310689
vn -0.324978 0.568532 -0.755751
f 2//2 3//3 7//7
f 1//1 2//2 7//7
f 3//3 2//2 1//1
f 3//3 4//4 10//10
f 10//10 4//4 1//1
f 4//4 3//3 1//1
f 10//10 7//7 3//3
f 1//1 7//7 10//10
f 11//11 12//12 21//21
f 21//21 14//14 11//11
f 12//12 14//14 21//21
f 14//14 12//12 11//11
f 17//17 22//22 28//28
f 29//29 28//28 22//22
f 17//17 28//28 29//29
f 29//29 22//22 17//17
f 20//20 26//26 30//30
f 30//30 26//26 16//16
f 16//16 20//20 30//30
f 26//26 20//20 16//16
f 31//31 18//18 9//9
f 31//31 9//9 8//8
f 8//8 9//9 18//18
f 18//18 31//31 32//32
f 32//32 31//31 19//19
f 32//32 19//19 18//18
f 8//8 19//19 31//31
f 8//8 18//18 19//19
f 5//5 15//15 36//36
f 36//36 15//15 6//6
f 36//36 6//6 5//5
f 5//5 6//6 15//15
f 11//11 12//12 39//39
f 12//12 13//13 39//39
f 11//11 12//12 13//13
f 39//39 38//38 11//11
f 13//13 38//38 39//39
f 11//11 13//13 38//38
f 23//23 24//24 42//42
f 42//42 25//25 23//23
f 24//24 25//25 42//42
f 25//25 24//24 23//23
f 37//37 41//41 48//48
f 48//48 41//41 27//27
f 27//27 37//37 48//48
f 41//41 37//37 27//27
f 33//33 34//34 49//49
f 49//49 35//35 33//33
f 34//34 35//35 49//49
f 35//35 34//34 33//33
f 43//43 47//47 52//52
f 52//52 47//47 40//40
f 40//40 43//43 52//52
f 47//47 43//43 40//40
f 54//54 53//53 44//44
f 46//46 53//53 54//54
f 44//44 46//46 54//54
f 53//53 46//46 44//44
f 50//50 51//51 54//54
f 54//54 51//51 45//45
f 45//45 50//50 54//54
f 51//51 50//50 45//45
