# Created by Open3D 
# object name: 4b455e9b8dc1380dbd508cb7996d6164
# number of vertices: 20
# number of triangles: 20
v 0.0472927 -0.351255 0.444179
vn 0.134314 0.136423 0.981503
v -0.765443 0.165437 -0.0841141
vn -0.534334 -0.137151 0.834072
v 0.69468 -0.243641 0.444179
vn -0.507452 -0.463226 0.726577
v 0.0128349 -0.358084 0.417825
vn -0.723057 -0.600143 -0.342077
v -0.765443 0.15385 -0.13522
vn -0.30032 -0.768111 -0.565521
v 0.661775 -0.269719 0.45112
vn 0.620152 0.728598 0.290785
v -0.730347 0.170743 -0.109958
vn 1 0 0
v -0.0159752 -0.358084 -0.335312
vn -0.507862 -0.846923 0.15747
v -0.765443 0.197749 -0.128001
vn -0.296328 0.931446 -0.211182
v 0.0690698 -0.358084 0.410129
vn 0.582312 -0.516997 -0.627397
v 0.696871 -0.260423 0.481557
vn -0.516953 0.460179 -0.721799
v 0.0376039 -0.319577 0.409083
vn -0.0293642 0.976265 -0.214579
v 0.767062 0.152935 0.128211
vn 0.602653 -0.756475 0.254076
v 0.767062 0.197977 0.131296
vn 0.500646 0.650462 0.571185
v 0.767062 0.184766 0.0919617
vn -0.214517 0.0667445 -0.974437
v 0.661775 -0.228813 0.477199
vn 0.526404 -0.763689 -0.373734
v 0.731966 0.172015 0.137244
vn -1 0 0
v -0.0167387 -0.313683 -0.322383
vn -0.117475 0.689915 0.714295
v 0.0183574 -0.339432 -0.347681
vn 0.999829 0.0181773 -0.00337972
v -0.0167387 -0.3225 -0.369807
vn -0.443145 0.243582 -0.862722
f 9//9 7//7 5//5
f 9//9 5//5 2//2
f 2//2 7//7 9//9
f 2//2 5//5 7//7
f 1//1 10//10 12//12
f 12//12 10//10 4//4
f 12//12 4//4 1//1
f 1//1 4//4 10//10
f 16//16 11//11 6//6
f 3//3 11//11 16//16
f 16//16 6//6 3//3
f 3//3 6//6 11//11
f 13//13 14//14 17//17
f 14//14 15//15 17//17
f 17//17 15//15 13//13
f 15//15 14//14 13//13
f 18//18 19//19 20//20
f 20//20 19//19 8//8
f 8//8 18//18 20//20
f 19//19 18//18 8//8
