# Created by Open3D 
# object name: 6fa34794adb6acde24dca86ff4e91ac2
# number of vertices: 36
# number of triangles: 36
v 0.160177 -0.121099 0.28062
vn -0.621533 -0.551754 0.556115
v -0.697674 0.277945 0.155215
vn 0 1 0
v -0.204569 -0.178241 0.242585
vn -0.514544 -0.824073 -0.236954
v -0.159127 -0.157222 0.242585
vn 0.950039 -0.0718522 -0.30375
v -0.0244746 0.23991 -0.0318583
vn -0.488856 -0.471894 -0.733714
v -0.00940758 0.23991 0.00752328
vn 0.486643 -0.479278 0.730392
v -0.0277949 0.277945 -0.00468799
vn -0.750463 0.595288 0.287119
v 0.71845 0.277945 -0.203543
vn -0.702856 0.242323 -0.668785
v 0.741453 0.277945 -0.168183
vn -0.0964924 0.295677 0.950402
v 0.770108 0.277945 -0.198298
vn 0.768323 0.399799 -0.49984
v 0.157876 -0.0920126 0.242585
vn -0.483662 0.743049 -0.462546
v -0.19018 -0.148769 0.28062
vn 0 0 1
v 0.581671 0.147913 0.242585
vn 0 0 -1
v -0.0514221 -0.373788 0.28062
vn -0.698432 -0.494035 0.517805
v 0.196652 -0.0973573 0.28062
vn 0.678772 0.602566 0.419742
v 0.252126 0.122008 0.242585
vn -0.8375 0.16157 -0.522005
v -0.201002 -0.131075 0.242585
vn -0.368713 0.797125 -0.478165
v 0.188405 -0.126402 0.242585
vn 0.452384 -0.694996 -0.558864
v 0.00717621 0.277945 -0.0279884
vn 0.885126 0.31918 -0.33864
v -0.183358 0.277945 0.237221
vn 0.693354 0.26792 0.668939
v -0.662122 0.23991 0.169792
vn 0.984636 -0.0354909 0.170975
v 0.268101 0.106086 0.28062
vn -0.0901355 -0.777804 0.62201
v -0.196748 0.277945 0.19076
vn 0.284517 0.197451 -0.938117
v -0.228395 0.277945 0.223562
vn -0.831143 0.501819 0.23954
v 0.548694 0.134528 0.28062
vn -0.936075 -0.336664 0.102081
v 0.0032973 -0.373269 0.28062
vn 0.740337 -0.653815 0.156292
v -0.0208345 -0.339153 0.28062
vn -0.00907639 0.955889 0.293589
v 0.277374 0.147968 0.278706
vn 0.108049 0.932386 0.344938
v 0.579078 0.166655 0.28062
vn 0.252045 0.823458 0.508322
v -0.21105 0.23991 0.220817
vn 0 -1 0
v -0.0329208 -0.361931 0.242585
vn 0 0 -1
v 0.747883 0.23991 -0.188721
vn 0 -1 0
v -0.694547 0.23991 0.129308
vn -0.188182 -0.499909 -0.845387
v 0.293945 0.117162 0.242585
vn 0.866013 -0.212412 -0.452662
v -0.703163 0.23991 0.178928
vn -0.700896 -0.440001 0.561377
v 0.59582 0.120103 0.28062
vn 0.677322 -0.640563 0.36182
f 3//3 12//12 17//17
f 17//17 12//12 4//4
f 17//17 4//4 3//3
f 3//3 4//4 12//12
f 11//11 15//15 18//18
f 18//18 15//15 1//1
f 1//1 11//11 18//18
f 15//15 11//11 1//1
f 5//5 7//7 19//19
f 19//19 6//6 5//5
f 19//19 7//7 6//6
f 5//5 6//6 7//7
f 30//30 24//24 23//23
f 20//20 24//24 30//30
f 30//30 23//23 20//20
f 20//20 23//23 24//24
f 31//31 27//27 26//26
f 14//14 27//27 31//31
f 31//31 26//26 14//14
f 14//14 26//26 27//27
f 32//32 10//10 9//9
f 8//8 10//10 32//32
f 32//32 9//9 8//8
f 8//8 9//9 10//10
f 34//34 28//28 22//22
f 16//16 28//28 34//34
f 34//34 22//22 16//16
f 16//16 22//22 28//28
f 35//35 33//33 21//21
f 2//2 33//33 35//35
f 35//35 21//21 2//2
f 2//2 21//21 33//33
f 36//36 29//29 25//25
f 13//13 29//29 36//36
f 36//36 25//25 13//13
f 13//13 25//25 29//29
