# Created by Open3D 
# object name: 7153026411fbb33cae685ca100c909e8
# number of vertices: 5
# number of triangles: 6
v 0.0318338 0.0569045 0.659139
vn -0.583711 0.752829 0.304186
v 0.0214767 0.0294829 0.626352
vn -0.555198 -0.0318883 -0.831106
v 0.0632234 0.0294829 0.639222
vn 0.88566 0.0508687 -0.461539
v 0.0534645 0.0294829 0.687734
vn 0.555198 0.0318883 0.831106
v 0.0351224 -0.000352847 0.659139
vn -0.527653 -0.803724 0.274973
f 2//2 3//3 5//5
f 1//1 2//2 5//5
f 3//3 2//2 1//1
f 3//3 4//4 5//5
f 5//5 4//4 1//1
f 4//4 3//3 1//1
