# Created by Open3D 
# object name: 8df9eb57d6f6bf7f490ad276cd2af3a4
# number of vertices: 26
# number of triangles: 28
v -0.30719 0.28322 -0.198938
vn 0.0402189 0.425768 0.903938
v -0.297007 0.242563 -0.222031
vn 0 -1 0
v -0.328369 0.28322 -0.239785
vn -0.860462 0.0710491 -0.504537
v 0.456817 0.242563 0.041032
vn 0.325812 0.508891 -0.796791
v -0.28203 0.28322 -0.241847
vn 0.799152 0.435507 -0.414354
v -0.486402 0.20868 0.133017
vn 0.497841 -0.325268 -0.803962
v -0.530975 0.20868 0.152851
vn -0.758261 -0.506505 -0.410478
v -0.0341066 0.242563 -0.271482
vn -0.62839 0.252711 -0.735706
v -0.501705 0.242563 0.157268
vn 0.233078 0.896661 -0.376397
v -0.536077 0.242563 0.182971
vn -0.497841 0.325268 0.803962
v -0.490312 0.20868 0.178031
vn 0.438808 -0.478255 0.760736
v 0.435182 0.20868 0.0617778
vn -0.866011 -0.499316 -0.026605
v 0.455263 0.242563 0.0916287
vn -0.294335 0.62868 0.719811
v -0.290398 0.20868 0.16614
vn -0.326911 -0.864887 0.380921
v -0.0206063 0.20868 -0.241544
vn 0 -1 0
v 0.475213 0.20868 0.0781465
vn 0.849716 -0.526595 0.0261044
v -0.626977 0.20868 -0.075447
vn -0.281139 -0.638907 -0.716072
v -0.648851 0.222233 -0.0264189
vn -0.890786 0.247366 0.381196
v -0.248802 0.242563 0.168526
vn 0.77329 0.344777 0.53212
v -0.254551 0.20868 0.146535
vn 0.521988 -0.597988 -0.608226
v -0.0300467 0.242563 -0.221842
vn -0.428115 0.49659 0.755061
v 0.00326351 0.242563 -0.250294
vn 0.947843 0.309168 -0.0775204
v -0.610751 0.242563 -0.0595163
vn 0.299048 0.945618 -0.127972
v -0.607731 0.20868 -0.0304712
vn 0.695268 -0.550333 0.462316
v -0.297331 0.242563 0.186751
vn -0.521988 0.597988 0.608226
v -0.285484 0.242563 0.137045
vn -0.355965 0.492901 -0.793938
f 1//1 2//2 5//5
f 5//5 3//3 1//1
f 2//2 3//3 5//5
f 3//3 2//2 1//1
f 11//11 10//10 7//7
f 9//9 10//10 11//11
f 10//10 9//9 7//7
f 11//11 7//7 6//6
f 6//6 9//9 11//11
f 6//6 7//7 9//9
f 16//16 13//13 12//12
f 4//4 13//13 16//16
f 16//16 12//12 4//4
f 4//4 12//12 13//13
f 22//22 21//21 15//15
f 8//8 21//21 22//22
f 22//22 15//15 8//8
f 8//8 15//15 21//21
f 17//17 23//23 24//24
f 24//24 23//23 18//18
f 24//24 18//18 17//17
f 17//17 18//18 23//23
f 26//26 25//25 19//19
f 14//14 25//25 26//26
f 14//14 19//19 25//25
f 19//19 20//20 26//26
f 26//26 20//20 14//14
f 20//20 19//19 14//14
