# Created by Open3D 
# object name: 8e6254609ffacf233e5f17778b45d37e
# number of vertices: 16
# number of triangles: 16
v -0.697774 0.0116908 0.201172
vn -0.394785 -0.502197 -0.769378
v -0.661534 0.0284278 0.217425
vn 1 0 0
v -0.697774 0.0588347 0.216173
vn -0.38799 0.918152 -0.0803758
v -0.661534 -0.0421027 0.00621485
vn 1 0 0
v -0.697774 -0.0522242 -0.0165511
vn -0.506925 -0.584269 -0.633764
v -0.697774 -0.00483233 0.000842376
vn -0.077009 0.950788 -0.30012
v -0.697774 -0.0372889 0.0307642
vn -0.442549 -0.308967 0.841837
v -0.661534 -0.202746 -0.0300099
vn 0.625493 -0.241439 0.741934
v -0.697774 0.0154812 0.244471
vn -0.276155 -0.291426 0.915865
v -0.697774 -0.185954 -0.0352323
vn -1 0 0
v -0.661534 0.117823 -0.158523
vn 0.598167 0.520303 -0.609492
v -0.661534 0.0996507 -0.117594
vn 0.165143 0.201908 0.965381
v -0.697774 0.104014 -0.149436
vn -1 0 0
v -0.661534 -0.159789 -0.0572702
vn 0.416733 0.90855 0.0295099
v -0.661534 -0.201421 -0.0708181
vn -0.125595 -0.531565 -0.837654
v -0.661534 0.0647165 -0.147416
vn 0.239325 -0.887407 -0.393995
f 4//4 6//6 7//7
f 7//7 6//6 5//5
f 7//7 5//5 4//4
f 4//4 5//5 6//6
f 2//2 3//3 9//9
f 9//9 3//3 1//1
f 1//1 2//2 9//9
f 3//3 2//2 1//1
f 10//10 14//14 15//15
f 15//15 14//14 8//8
f 14//14 10//10 8//8
f 8//8 10//10 15//15
f 12//12 13//13 16//16
f 16//16 13//13 11//11
f 11//11 12//12 16//16
f 13//13 12//12 11//11
