# Created by Open3D 
# object name: b10228c0b83a6d436b8cc29ba15869e8
# number of vertices: 8
# number of triangles: 8
v -0.202211 0.137967 0.570604
vn -0.73128 -0.669016 -0.132842
v -0.169407 0.151206 0.599554
vn 0.280774 0.256868 0.924762
v 0.555329 -0.385589 0.308214
vn -0.783256 -0.62169 0.00346157
v 0.600402 -0.383469 0.312893
vn 0.813417 -0.581671 -0.00359486
v 0.577367 -0.354614 0.282695
vn 0.0447344 0.674745 -0.736694
v -0.185046 0.17725 0.554481
vn -0.222959 0.957102 -0.185055
v -0.156086 0.145594 0.554481
vn 0.675071 -0.512702 -0.530486
v 0.577611 -0.354614 0.337937
vn -0.10746 0.676606 0.728462
f 7//7 6//6 2//2
f 1//1 6//6 7//7
f 7//7 2//2 1//1
f 1//1 2//2 6//6
f 4//4 5//5 8//8
f 8//8 5//5 3//3
f 3//3 4//4 8//8
f 5//5 4//4 3//3
