# Created by Open3D 
# object name: b1ca280d9567270ade98d10ab5975b59
# number of vertices: 43
# number of triangles: 46
v 0.415453 0.12357 -0.42266
vn 0.314661 -0.357511 0.879303
v -0.796649 0.12357 0.318875
vn -0.788812 -0.613409 -0.0387978
v -0.0315719 0.125866 0.983492
vn 0.325772 -0.608052 0.723979
v -0.0731555 0.152377 0.978018
vn -0.769861 0.578687 0.269138
v -0.0476776 0.12357 0.942359
vn -0.31108 -0.634116 -0.707903
v -0.021375 0.152691 0.954982
vn 0.543328 0.799103 -0.257351
v 0.542808 0.12357 0.239936
vn 0.753451 -0.64974 0.100746
v -0.714115 0.12357 0.177047
vn 0.770169 -0.634881 -0.0613681
v -0.764875 0.12357 0.169832
vn -0.74237 -0.667374 0.059153
v 0.421688 0.12357 -0.467802
vn 0.0962758 -0.629955 -0.770641
v 0.400403 0.152691 -0.448345
vn -0.37526 0.92547 -0.0518245
v 0.447677 0.152691 -0.451406
vn 0.837144 0.534624 0.115612
v 0.499279 0.12357 0.241879
vn -0.843158 -0.525713 -0.112741
v -0.748296 0.12357 0.323874
vn 0.746037 -0.664893 0.0366939
v -0.7721 0.152691 0.34743
vn -0.0813752 0.611305 0.7872
v -0.76972 0.152691 0.299045
vn 0.0768606 0.664273 -0.743528
v -0.430292 0.12357 0.342973
vn 0.148177 -0.97164 0.184283
v -0.237864 0.12357 0.356016
vn 0.755114 -0.620963 0.210256
v 0.373844 0.12357 -0.436825
vn -0.837144 -0.534624 -0.115612
v -0.165717 0.12357 -0.47501
vn 0.00783081 -0.659932 0.751285
v -0.141767 0.152691 -0.494957
vn 0.818069 0.505473 -0.274336
v -0.180848 0.12357 -0.52013
vn -0.00863326 -0.560261 -0.828271
v 0.521538 0.152691 0.263219
vn 0.0348111 0.62498 0.779864
v -0.422812 0.152691 0.369439
vn -0.00778672 0.724146 0.689603
v -0.388325 0.152691 0.34198
vn 0.975827 -0.215002 -0.0391953
v -0.460807 0.152691 0.341161
vn -0.903675 0.375947 0.205027
v -0.280241 0.12357 0.339154
vn -0.765153 -0.607577 -0.213052
v -0.425101 0.152691 0.312451
vn 0.309204 0.733553 -0.605221
v 0.0791733 0.152691 0.095902
vn -0.579368 0.630515 -0.516511
v -0.190231 0.152691 -0.494452
vn -0.671237 0.706238 0.225097
v 0.527682 0.152691 0.217274
vn -0.0353981 0.608173 -0.793015
v -0.738533 0.152691 0.199143
vn -0.107079 0.648857 0.753338
v 0.255796 0.12357 0.603257
vn -0.72337 -0.680668 0.115876
v 0.273302 0.152691 0.581814
vn -0.0983649 0.728106 -0.67837
v 0.11121 0.152691 0.129778
vn -0.0470981 -0.117339 0.991974
v 0.111424 0.12357 0.0939886
vn 0 -1 0
v -0.264529 0.152691 0.368732
vn -0.258982 0.713655 0.650865
v -0.742615 0.152691 0.147913
vn 0.10621 0.656026 -0.747227
v 0.303042 0.12357 0.596406
vn 0.805105 -0.578941 -0.128969
v -0.45162 0.12357 0.295864
vn -0.512125 -0.576257 -0.636911
v 0.138883 0.152691 0.098737
vn 0.553647 0.647555 -0.523592
v -0.250678 0.152691 0.318987
vn 0.296584 0.597051 -0.745365
v 0.281155 0.152691 0.630836
vn 0.120732 0.540515 0.832627
f 3//3 5//5 6//6
f 6//6 5//5 4//4
f 6//6 4//4 3//3
f 3//3 4//4 5//5
f 10//10 11//11 12//12
f 1//1 10//10 12//12
f 12//12 11//11 1//1
f 16//16 14//14 2//2
f 16//16 15//15 14//14
f 2//2 14//14 15//15
f 2//2 15//15 16//16
f 19//19 11//11 10//10
f 19//19 10//10 1//1
f 1//1 11//11 19//19
f 24//24 25//25 28//28
f 28//28 25//25 17//17
f 25//25 24//24 17//17
f 28//28 26//26 24//24
f 17//17 24//24 26//26
f 21//21 22//22 30//30
f 20//20 21//21 30//30
f 30//30 22//22 20//20
f 22//22 21//21 20//20
f 13//13 23//23 31//31
f 31//31 23//23 7//7
f 7//7 13//13 31//31
f 23//23 13//13 7//7
f 38//38 32//32 8//8
f 9//9 32//32 38//38
f 8//8 9//9 38//38
f 32//32 9//9 8//8
f 26//26 28//28 40//40
f 40//40 28//28 17//17
f 17//17 26//26 40//40
f 35//35 36//36 41//41
f 41//41 36//36 29//29
f 29//29 35//35 41//41
f 36//36 35//35 29//29
f 42//42 37//37 18//18
f 27//27 37//37 42//42
f 18//18 27//27 42//42
f 37//37 27//27 18//18
f 33//33 39//39 43//43
f 43//43 39//39 34//34
f 43//43 34//34 33//33
f 33//33 34//34 39//39
