# Created by Open3D 
# object name: be0174f29dba41c19dd07b7af48c9a5
# number of vertices: 8
# number of triangles: 8
v -0.602696 0.159499 -0.384731
vn 0.347994 0.477997 -0.806486
v -0.629807 0.119573 -0.375438
vn -0.84182 -0.471152 -0.263353
v -0.587994 0.118355 -0.358118
vn 0.826093 -0.500781 0.258433
v -0.615004 0.159499 -0.345387
vn -0.336036 0.423936 0.841046
v -0.384106 0.159499 -0.240158
vn -0.893842 0.11958 -0.432144
v -0.3539 0.11935 -0.23559
vn 0 -1 0
v -0.363359 0.159499 -0.204914
vn 0.234921 0.282562 0.930038
v -0.341064 0.159499 -0.25103
vn 0.742023 0.508543 -0.43679
f 4//4 3//3 1//1
f 2//2 3//3 4//4
f 1//1 2//2 4//4
f 3//3 2//2 1//1
f 8//8 6//6 5//5
f 5//5 7//7 8//8
f 8//8 7//7 6//6
f 5//5 6//6 7//7
