# Created by Open3D 
# object name: c683f7280179260a898f72fb23e1ea6f
# number of vertices: 8
# number of triangles: 8
v -0.667772 -0.0233057 0.107052
vn -0.560747 -0.241929 -0.791854
v -0.667772 -0.0394789 0.0658677
vn -0.544683 0.245043 0.802044
v -0.667772 0.174244 0.423252
vn 0.608884 -0.639194 0.469778
v -0.701022 -0.0541358 0.0938909
vn 0.571082 0.764087 -0.300062
v -0.701022 0.201355 0.425919
vn -0.571988 0.63588 0.518157
v -0.701022 -0.00903468 0.0801115
vn 0.583444 -0.755951 0.296867
v -0.667772 0.204121 0.386587
vn 0.520472 0.68804 -0.505677
v -0.701022 0.173285 0.387725
vn -0.563888 -0.640212 -0.521688
f 6//6 4//4 2//2
f 1//1 4//4 6//6
f 6//6 2//2 1//1
f 1//1 2//2 4//4
f 5//5 7//7 8//8
f 7//7 5//5 3//3
f 8//8 7//7 3//3
f 3//3 5//5 8//8
