# Created by Open3D 
# object name: f2b3a2f7c9a4ec19436e6787c76ef3f0
# number of vertices: 28
# number of triangles: 32
v -0.00141446 0.104461 -0.59881
vn -0.720456 0.687163 -0.0935452
v 0.0507315 0.0970413 -0.596858
vn 0.843881 0.525222 0.109571
v 0.692826 0.0987445 -0.0383378
vn 0.230498 0.549575 0.803018
v 0.444652 0.0164043 -0.0717827
vn -0.0226755 0.52192 0.852693
v 0.404753 0.0164043 -0.105321
vn -0.912781 0.373249 -0.165877
v 0.0235226 0.0667263 -0.60999
vn -0.0578285 -0.613675 -0.787438
v 0.710647 0.0934175 -0.0885002
vn 0.728311 0.626307 -0.278034
v 0.673174 0.0987445 -0.0759613
vn -0.584898 0.759169 -0.285584
v 0.659983 0.0667263 -0.0556908
vn -0.796758 -0.508374 0.3267
v 0.451677 0.0164043 -0.110441
vn 0.288236 0.317805 -0.903283
v -0.241187 0.0100146 0.0879179
vn -0.824972 0.308224 0.473728
v 0.087528 -0.0101991 0.603477
vn 0 -1 0
v 0.135031 0.0164043 0.598814
vn 0.882236 -0.444286 -0.155784
v 0.105439 0.0164043 0.629039
vn -0.36062 0.742812 0.564078
v 0.688819 0.0942107 0.0879179
vn -0.639379 0.536343 0.550937
v 0.714632 0.0987445 0.045574
vn 0.402598 0.755895 -0.516273
v -0.211247 -0.0281059 0.0879179
vn 0.135518 -0.987714 -0.0778193
v 0.691157 0.0667263 0.0495001
vn -0.439277 -0.824762 -0.356094
v 0.68496 0.0667263 -0.107343
vn -0.472207 -0.455637 -0.754596
v 0.483974 -0.00763581 -0.0885002
vn 0.912781 -0.373249 0.165877
v 0.432694 -0.0202665 -0.0885002
vn -0.280091 -0.958623 -0.0509
v 0.729251 0.072676 0.0879179
vn 0.759239 -0.506562 0.408597
v 0.726045 0.0409681 -0.0885002
vn 0.779515 -0.575357 -0.24763
v -0.21382 0.0164043 0.054477
vn 0.0665132 0.0522412 -0.996417
v 0.699491 0.0667263 -0.0616026
vn 0.347436 -0.737969 0.578524
v -0.192561 0.0164043 0.0914989
vn 0.625635 0.49139 0.605902
v 0.0956567 0.0164043 0.573641
vn -0.468111 0.755527 -0.458314
v 0.018442 0.0667263 -0.570861
vn -0.0825328 -0.332856 0.939359
f 10//10 20//20 21//21
f 21//21 20//20 4//4
f 20//20 10//10 4//4
f 5//5 10//10 21//21
f 4//4 5//5 21//21
f 10//10 5//5 4//4
f 22//22 16//16 15//15
f 22//22 18//18 16//16
f 15//15 18//18 22//22
f 15//15 16//16 18//18
f 3//3 9//9 25//25
f 3//3 8//8 9//9
f 25//25 7//7 3//3
f 3//3 7//7 8//8
f 19//19 23//23 25//25
f 25//25 23//23 7//7
f 23//23 19//19 7//7
f 9//9 19//19 25//25
f 19//19 9//9 8//8
f 19//19 8//8 7//7
f 17//17 24//24 26//26
f 26//26 24//24 11//11
f 11//11 17//17 26//26
f 24//24 17//17 11//11
f 27//27 14//14 13//13
f 27//27 13//13 12//12
f 12//12 14//14 27//27
f 12//12 13//13 14//14
f 1//1 6//6 28//28
f 28//28 6//6 2//2
f 28//28 2//2 1//1
f 1//1 2//2 6//6
