# Created by Open3D 
# object name: f720b36f39f9dc0e5582a46a1071249
# number of vertices: 12
# number of triangles: 12
v 0.246695 0.227368 -0.483208
vn 0.185666 -0.224785 -0.956556
v 0.211355 0.227368 -0.455275
vn -0.808722 -0.395027 0.4358
v 0.267634 0.227368 -0.444351
vn 0.54787 -0.468409 0.693132
v 0.243652 0.26228 -0.45721
vn 0 1 0
v 0.433612 0.227368 -0.0538747
vn 0 -1 0
v 0.405113 0.26228 -0.0492025
vn -0.895951 0.424964 0.129137
v 0.574737 -0.180068 -0.218001
vn -0.510107 0.589256 0.626552
v 0.609649 -0.195633 -0.239951
vn 1 0 0
v 0.574737 -0.229369 -0.236647
vn -0.222395 -0.926571 0.303327
v 0.453654 0.26228 -0.0297073
vn 0.542179 0.339739 0.768517
v 0.574737 -0.196341 -0.267709
vn -0.395307 0.324936 -0.859156
v 0.446623 0.26228 -0.0784875
vn 0.342573 0.393801 -0.852974
f 2//2 3//3 4//4
f 1//1 2//2 4//4
f 4//4 3//3 1//1
f 3//3 2//2 1//1
f 11//11 9//9 7//7
f 8//8 9//9 11//11
f 7//7 8//8 11//11
f 9//9 8//8 7//7
f 6//6 10//10 12//12
f 12//12 10//10 5//5
f 5//5 6//6 12//12
f 10//10 6//6 5//5
