# Created by Open3D 
# object name: 2f00a785c9ac57c07f48cf22f91f1702
# number of vertices: 29
# number of triangles: 36
v -0.0025511 0.728365 0.620847
vn 0.995337 0.0470302 -0.0842118
v -0.0385812 0.748298 0.630101
vn -0.489592 0.859484 0.146925
v 0.189816 0.679368 0.564443
vn -0.723114 -0.345428 -0.598152
v -0.138584 0.676549 0.579318
vn 0.547014 -0.070937 -0.834112
v 0.202774 0.681786 0.609422
vn -0.25609 -0.203616 0.944965
v 0.660502 0.721801 0.0449383
vn 0.344892 -0.183289 0.920573
v -0.0811287 0.687429 0.598223
vn -0.340965 -0.556625 -0.757569
v -0.13152 0.6319 0.602098
vn 0.408983 -0.911483 0.0439478
v -0.034345 0.704312 0.655605
vn -0.010768 -0.437012 0.899391
v -0.077925 0.688444 0.644669
vn -0.0765998 -0.392769 0.916442
v 0.636029 0.752667 -0.0184613
vn 0.148699 0.886537 -0.438109
v 0.661628 0.718208 0.00481564
vn 0.886753 0.120538 -0.446251
v -0.1338 0.714226 0.600194
vn 0.641967 0.754667 0.135483
v -0.0383434 0.709607 0.611304
vn 0.40234 -0.539551 -0.739599
v 0.620204 0.734421 0.023563
vn -0.531846 0.556439 0.638369
v 0.632758 0.688003 0.00961768
vn -0.244066 -0.932291 0.266955
v 0.585577 0.675245 0.162305
vn -0.743779 -0.324424 0.584415
v 0.608969 0.645306 0.147401
vn 0.252511 -0.967461 -0.0160555
v 0.597019 0.715491 0.140037
vn -0.324784 0.812029 -0.484896
v 0.627032 0.68622 0.152919
vn 0.995508 0.0612457 0.0721975
v -0.0751326 0.726484 0.615462
vn -0.463197 0.886166 0.0125895
v -0.146095 0.675245 0.622173
vn 0.150434 0.0956553 0.983982
v -0.176932 0.707785 0.587033
vn -0.790732 0.60022 -0.120329
v 0.614436 0.717202 -0.0132391
vn -0.492655 -0.325528 -0.807045
v 0.583022 0.675245 0.122112
vn -0.18505 -0.133669 -0.973596
v 0.583442 0.711668 0.182827
vn 0.076189 0.466053 0.881471
v 0.209862 0.720194 0.578673
vn 0.126958 0.987846 -0.0896782
v 0.234262 0.674657 0.575473
vn 0.901823 -0.358982 -0.240515
v -0.172943 0.661973 0.596772
vn -0.832252 -0.530199 -0.162004
f 1//1 9//9 14//14
f 14//14 9//9 2//2
f 14//14 2//2 1//1
f 1//1 2//2 9//9
f 6//6 15//15 16//16
f 6//6 12//12 15//15
f 16//16 12//12 6//6
f 21//21 14//14 7//7
f 10//10 14//14 21//21
f 7//7 10//10 21//21
f 14//14 10//10 7//7
f 23//23 22//22 13//13
f 4//4 13//13 22//22
f 23//23 13//13 4//4
f 24//24 16//16 15//15
f 12//12 16//16 24//24
f 24//24 15//15 11//11
f 11//11 12//12 24//24
f 15//15 12//12 11//11
f 25//25 20//20 18//18
f 25//25 18//18 17//17
f 17//17 18//18 20//20
f 19//19 20//20 25//25
f 17//17 19//19 25//25
f 26//26 20//20 19//19
f 17//17 20//20 26//26
f 26//26 19//19 17//17
f 28//28 27//27 5//5
f 3//3 27//27 28//28
f 28//28 5//5 3//3
f 3//3 5//5 27//27
f 22//22 23//23 29//29
f 29//29 23//23 4//4
f 8//8 22//22 29//29
f 4//4 8//8 29//29
f 22//22 8//8 4//4
