# Created by Open3D 
# object name: 946bd5aeda453b38b3a454ed6a7199e2
# number of vertices: 50
# number of triangles: 52
v -0.604779 -0.0947843 0.551378
vn -0.589718 -0.777196 -0.219544
v -0.567123 -0.0792458 0.54462
vn 1 0 0
v 0.603253 0.0682307 -0.271245
vn 0.300337 0.924962 -0.232901
v -0.604779 0.0653926 -0.553357
vn -0.366961 0.702473 -0.609812
v -0.604779 -0.0609822 0.581114
vn 0.0774899 0.233713 0.969213
v -0.604779 -0.0494975 0.540458
vn -0.377207 0.611715 -0.695356
v 0.567059 0.0384976 -0.272644
vn -1 0 0
v 0.0786645 -0.0782644 0.0166815
vn 0.869425 -0.32386 0.373116
v 0.0274116 -0.102179 0.0101097
vn -0.299675 -0.945334 -0.128606
v -0.567123 0.0743583 -0.51248
vn 0.497577 0.84814 0.181866
v 0.0521773 -0.065459 -0.0157262
vn -0.0872506 0.433473 -0.896933
v 0.0337381 -0.065459 0.0272404
vn -0.400046 0.692337 0.600527
v -0.604779 0.0562432 -0.510688
vn -0.469546 -0.666733 0.578787
v 0.603253 0.023476 -0.285628
vn 0.472118 -0.542009 -0.69522
v -0.559295 -0.102179 0.281067
vn -0.30016 -0.593547 -0.74673
v -0.581643 -0.0781806 0.316394
vn -0.823544 0.31137 0.474156
v 0.603253 0.0338471 -0.244439
vn 0.209781 -0.299143 0.930863
v -0.540492 -0.0645231 0.288997
vn 0.429719 0.849743 -0.305414
v 0.567059 0.0643931 0.11699
vn -0.528658 0.572897 0.626347
v 0.284133 -0.065459 0.309775
vn 0.0196849 0.99975 0.0106159
v -0.53819 -0.100155 0.316394
vn 0.594344 -0.43871 0.674009
v 0.300645 -0.102802 0.271932
vn 0.501214 0.147053 -0.852737
v 0.603253 0.0310181 0.123104
vn 0.999378 -0.0237969 -0.0260171
v 0.0335079 -0.102179 0.610402
vn 0 -1 0
v -0.567123 0.0424241 -0.549267
vn 0.418205 -0.888163 -0.190448
v 0.259744 -0.102179 0.289107
vn -0.920663 -0.389993 -0.0168693
v 0.144516 0.0292764 -0.753872
vn -0.213784 0.78401 0.582774
v -0.0938211 -0.099779 0.619064
vn 0.575081 -0.426606 0.698061
v -0.12121 -0.0645231 0.61127
vn -0.482998 0.740806 0.466818
v 0.144728 -0.0136307 -0.755128
vn -0.594399 -0.771247 0.227747
v 0.185339 -0.00255681 -0.755128
vn 0.996413 0.00244735 0.0845862
v 0.300078 -0.103223 0.312634
vn 0.298574 -0.610978 0.733185
v 0.147854 0.015213 -0.792785
vn -0.00796795 0.0292209 -0.999541
v 0.565596 0.0394174 0.0836375
vn 0.244674 0.0884747 -0.96556
v 0.603253 -0.0172068 0.0979927
vn 0.355073 0.896417 0.265255
v 0.565596 0.00891584 0.111536
vn -0.637242 -0.603205 0.479653
v -0.0019601 -0.065459 0.606283
vn -0.97559 0.194134 0.102644
v -0.124587 -0.102179 0.59104
vn -0.676637 -0.615114 -0.404719
v 0.508061 -0.0767742 0.34088
vn 0.714732 0.517983 0.46995
v 0.565596 -0.0263533 0.0708159
vn -0.834211 0.0930406 -0.54354
v 0.0428603 -0.065459 0.629843
vn 0.449138 0.515676 0.729625
v 0.037806 -0.065459 0.581804
vn 0.439151 0.330457 -0.835431
v 0.476635 -0.0799364 0.312371
vn -0.584015 0.569588 -0.578356
v 0.508061 -0.115005 0.303229
vn 0.564628 -0.61126 -0.554577
v 0.603253 -0.0454397 0.140151
vn 0.388498 -0.155468 0.90824
v -0.0932234 -0.0756605 0.581408
vn 0.622487 0.326336 -0.711347
v 0.476635 -0.107309 0.342541
vn -0.498971 -0.608094 0.617454
v 0.603253 -0.0273831 0.0545636
vn 0.556826 0.140145 -0.818721
v 0.565596 -0.0450217 0.109339
vn -0.884953 -0.0785702 0.459005
v 0.603253 -0.0587489 0.0908817
vn 0.35195 -0.897548 -0.26559
f 1//1 5//5 6//6
f 6//6 5//5 2//2
f 6//6 2//2 1//1
f 1//1 2//2 5//5
f 12//12 11//11 9//9
f 8//8 11//11 12//12
f 12//12 9//9 8//8
f 8//8 9//9 11//11
f 17//17 14//14 3//3
f 7//7 14//14 17//17
f 3//3 7//7 17//17
f 14//14 7//7 3//3
f 15//15 18//18 21//21
f 21//21 18//18 16//16
f 21//21 16//16 15//15
f 15//15 16//16 18//18
f 10//10 13//13 25//25
f 25//25 13//13 4//4
f 4//4 10//10 25//25
f 13//13 10//10 4//4
f 32//32 26//26 22//22
f 20//20 26//26 32//32
f 32//32 22//22 20//20
f 20//20 22//22 26//26
f 33//33 30//30 27//27
f 33//33 31//31 30//30
f 27//27 31//31 33//33
f 27//27 30//30 31//31
f 36//36 34//34 23//23
f 19//19 34//34 36//36
f 19//19 23//23 34//34
f 36//36 23//23 19//19
f 37//37 41//41 42//42
f 42//42 41//41 24//24
f 24//24 37//37 42//42
f 41//41 37//37 24//24
f 46//46 38//38 29//29
f 28//28 38//38 46//46
f 46//46 29//29 28//28
f 28//28 29//29 38//38
f 39//39 43//43 47//47
f 43//43 44//44 47//47
f 47//47 44//44 39//39
f 44//44 43//43 39//39
f 45//45 49//49 50//50
f 35//35 45//45 50//50
f 49//49 45//45 35//35
f 40//40 48//48 50//50
f 50//50 48//48 35//35
f 48//48 40//40 35//35
f 50//50 49//49 40//40
f 35//35 40//40 49//49
