# Created by Open3D 
# object name: babeae78f6d2412a15dd7d7985e749c1
# number of vertices: 12
# number of triangles: 12
v -0.276791 0.455139 0.745488
vn -0.41327 -0.833127 0.36757
v -0.204117 -0.358227 -0.663839
vn -0.298628 -0.644468 0.703906
v -0.164912 -0.346923 -0.690948
vn 0.752771 -0.348907 -0.558212
v -0.278611 0.497685 0.746517
vn -0.277263 0.759844 0.588015
v -0.208684 -0.325857 -0.690231
vn -0.599267 0.277758 -0.75082
v -0.181575 -0.309592 -0.663839
vn 0.313114 0.626286 0.71395
v 0.122271 0.283593 0.73591
vn -0.853833 -0.266659 0.447059
v 0.166911 0.278431 0.73591
vn 0.826853 -0.00784776 0.562363
v 0.141015 0.315898 0.708801
vn 0.111977 0.968369 -0.222984
v -0.280726 0.482094 0.708801
vn -0.27494 0.011483 -0.961393
v 0.148654 0.271571 0.69695
vn -0.071299 -0.616591 -0.784048
v -0.242466 0.475076 0.73591
vn 0.996252 0.0444152 -0.074225
f 5//5 3//3 2//2
f 6//6 5//5 2//2
f 3//3 5//5 6//6
f 2//2 3//3 6//6
f 7//7 9//9 11//11
f 11//11 9//9 8//8
f 11//11 8//8 7//7
f 7//7 8//8 9//9
f 12//12 10//10 4//4
f 1//1 10//10 12//12
f 12//12 4//4 1//1
f 1//1 4//4 10//10
