# Created by Open3D 
# object name: 2cf9dc107cf70f511f6736765dee4fa9
# number of vertices: 26
# number of triangles: 28
v 0.0653962 0.485595 0.224084
vn 0.143978 0.886913 0.438926
v 0.0945037 0.438187 0.224265
vn 0.856466 -0.36658 0.363436
v 0.0482423 0.445697 0.224265
vn -0.801027 -0.490505 0.343163
v 0.210368 0.375732 0.224265
vn -0.565513 -0.647046 0.511396
v -0.193018 -0.308893 0.191386
vn -0.64287 -0.428818 -0.634692
v 0.511949 -0.204347 0.191386
vn -0.423799 -0.256184 -0.868772
v 0.510206 -0.175406 0.222804
vn 0.569991 0.634704 0.521786
v 0.555142 -0.231458 0.191386
vn -0.054115 -0.788282 -0.61293
v 0.0677999 0.458794 0.191386
vn -0.000691597 -0.00426027 -0.999991
v -0.154734 -0.276793 0.191386
vn 0.6486 0.488272 -0.583873
v -0.0554589 -0.338322 0.224265
vn 0.297986 -0.689708 0.659929
v -0.092499 -0.332856 0.191386
vn -0.683892 -0.525497 -0.506108
v -0.159055 -0.316607 0.222663
vn 0.581714 -0.693785 0.424584
v 0.514348 -0.252802 0.191386
vn -0.438796 -0.699088 -0.564565
v 0.34789 0.0532991 0.223395
vn 0.861694 0.191413 0.469941
v 0.322805 0.0503009 0.191386
vn -0.0199165 -0.00442417 -0.999792
v 0.230478 0.385163 0.191386
vn 0 0 -1
v -0.0495765 -0.314311 0.191386
vn 0.621602 0.477634 -0.620868
v 0.302675 0.0601996 0.224265
vn -0.605416 0.68182 0.410601
v 0.476273 -0.199338 0.224265
vn -0.998517 -0.00105328 -0.0544382
v 0.217693 0.422323 0.224265
vn -0.245013 0.961312 0.125886
v -0.0859922 -0.298585 0.224265
vn -0.34018 0.78737 0.514126
v 0.311501 0.0204641 0.224265
vn -0.143883 -0.96845 0.203473
v 0.510206 -0.229469 0.22385
vn -0.237727 -0.951832 0.193652
v 0.257311 0.387697 0.224265
vn 0.862041 -0.135531 0.488381
v -0.18416 -0.281344 0.224265
vn -0.480734 0.57335 0.663449
f 2//2 3//3 9//9
f 1//1 2//2 9//9
f 9//9 3//3 1//1
f 3//3 2//2 1//1
f 11//11 18//18 22//22
f 22//22 18//18 12//12
f 22//22 12//12 11//11
f 11//11 12//12 18//18
f 23//23 19//19 16//16
f 15//15 19//19 23//23
f 23//23 16//16 15//15
f 15//15 16//16 19//19
f 24//24 20//20 6//6
f 7//7 20//20 24//24
f 6//6 7//7 24//24
f 20//20 7//7 6//6
f 24//24 14//14 8//8
f 6//6 14//14 24//24
f 6//6 8//8 24//24
f 6//6 8//8 14//14
f 17//17 21//21 25//25
f 25//25 21//21 4//4
f 4//4 17//17 25//25
f 21//21 17//17 4//4
f 26//26 13//13 10//10
f 26//26 10//10 5//5
f 5//5 13//13 26//26
f 5//5 10//10 13//13
